<svg width="20" height="20" viewBox="0 0 20 20" fill="none" xmlns="http://www.w3.org/2000/svg">
<path d="M19.9847 7.71873C19.9847 7.68865 19.978 7.64322 19.9663 7.61705C19.9355 7.50556 19.8672 7.40373 19.765 7.33263L16.902 5.34248V3.20904C16.902 2.92623 16.6726 2.69685 16.3898 2.69685H13.0961L10.2936 0.748492C10.1185 0.626578 9.88594 0.62607 9.71023 0.747476L6.88969 2.69685H3.61039C3.3275 2.69685 3.0982 2.92623 3.0982 3.20904V5.31736L0.221328 7.30568C0.0798047 7.40349 0.00324219 7.55986 0.000820312 7.71974C0.000664063 7.72275 0 7.7256 0 7.72873L0.0152734 18.8317C0.0154688 18.9675 0.0696094 19.0977 0.165742 19.1936C0.261758 19.2894 0.391836 19.3431 0.527461 19.3431C0.527734 19.3431 0.52793 19.3431 0.528164 19.3431L19.4885 19.317C19.7713 19.3167 20.0004 19.087 20 18.8042L19.9847 7.71873ZM16.902 6.59009L18.5386 7.72752L16.902 8.86533V6.59009ZM10.0006 1.79228L11.3018 2.69681H8.69191L10.0006 1.79228ZM4.12258 3.72123H15.8776V9.57752L11.9309 12.3213L10.3217 11.0731C10.3192 11.0712 10.3171 11.07 10.3146 11.0682C10.1348 10.9333 9.88043 10.9283 9.69379 11.0731L8.07297 12.3304L4.12258 9.60017V3.72123ZM3.0982 6.56255V8.89224L1.41281 7.72744L3.0982 6.56255ZM1.0257 8.70568L7.22371 12.9891L1.0382 17.7869L1.0257 8.70568ZM2.02637 18.3167L10.0078 12.1259L17.9605 18.2948L2.02637 18.3167ZM12.7791 12.9793L18.9617 8.68099L18.9742 17.7849L12.7791 12.9793Z" fill="#FF7F8E"/>
<path d="M13.4676 5.77002H6.53257C6.24976 5.77002 6.02039 5.99939 6.02039 6.28221C6.02039 6.56502 6.24976 6.79439 6.53257 6.79439H13.4676C13.7505 6.79439 13.9798 6.56502 13.9798 6.28221C13.9798 5.99939 13.7505 5.77002 13.4676 5.77002Z" fill="#FF7F8E"/>
<path d="M13.4676 8.43335H6.53257C6.24976 8.43335 6.02039 8.66272 6.02039 8.94554C6.02039 9.22835 6.24976 9.45772 6.53257 9.45772H13.4676C13.7505 9.45772 13.9798 9.22835 13.9798 8.94554C13.9798 8.66272 13.7505 8.43335 13.4676 8.43335Z" fill="#FF7F8E"/>
</svg>
