<svg width="20" height="20" viewBox="0 0 20 20" fill="none" xmlns="http://www.w3.org/2000/svg">
<g clip-path="url(#clip0)">
<path d="M15.8063 12.3892C15.3969 11.9628 14.903 11.7349 14.3796 11.7349C13.8604 11.7349 13.3623 11.9586 12.9359 12.385L11.6021 13.7146C11.4923 13.6555 11.3826 13.6006 11.277 13.5458C11.1251 13.4698 10.9816 13.398 10.8591 13.322C9.60969 12.5285 8.4742 11.4943 7.38515 10.1562C6.85751 9.48926 6.50293 8.92784 6.24544 8.35799C6.59157 8.04141 6.91238 7.71216 7.22475 7.39557C7.34294 7.27738 7.46113 7.15497 7.57932 7.03678C8.46576 6.15034 8.46576 5.00219 7.57932 4.11575L6.42695 2.96338C6.29609 2.83253 6.16102 2.69745 6.03438 2.56238C5.78112 2.30067 5.51518 2.03051 5.24081 1.77724C4.83136 1.37202 4.34171 1.15674 3.82673 1.15674C3.31175 1.15674 2.81366 1.37202 2.39154 1.77724C2.38732 1.78147 2.38732 1.78147 2.3831 1.78569L0.947913 3.23354C0.407607 3.77384 0.0994644 4.43234 0.0319262 5.19636C-0.0693811 6.42893 0.293637 7.57708 0.572232 8.32844C1.25606 10.1731 2.27757 11.8826 3.8014 13.7146C5.65026 15.9223 7.8748 17.6656 10.4159 18.8939C11.3868 19.354 12.6827 19.8986 14.1305 19.9914C14.2192 19.9957 14.312 19.9999 14.3965 19.9999C15.3715 19.9999 16.1904 19.6495 16.8321 18.953C16.8363 18.9446 16.8447 18.9404 16.8489 18.9319C17.0684 18.666 17.3217 18.4254 17.5876 18.1679C17.7691 17.9948 17.9549 17.8133 18.1364 17.6234C18.5543 17.1886 18.7738 16.6821 18.7738 16.1629C18.7738 15.6394 18.5501 15.1371 18.1237 14.715L15.8063 12.3892ZM17.3175 16.834C17.3133 16.834 17.3133 16.8382 17.3175 16.834C17.1529 17.0113 16.984 17.1717 16.8025 17.349C16.5281 17.6107 16.2495 17.8851 15.9878 18.1932C15.5615 18.6491 15.0592 18.8644 14.4007 18.8644C14.3374 18.8644 14.2698 18.8644 14.2065 18.8602C12.9528 18.78 11.7878 18.2903 10.914 17.8724C8.52486 16.7158 6.42695 15.0738 4.68362 12.9928C3.24421 11.2579 2.28179 9.65388 1.6444 7.93166C1.25184 6.8806 1.10832 6.0617 1.17163 5.28923C1.21384 4.79536 1.4038 4.38591 1.75415 4.03555L3.19356 2.59614C3.40039 2.40197 3.61989 2.29644 3.83517 2.29644C4.1011 2.29644 4.31638 2.45685 4.45146 2.59192C4.45568 2.59614 4.4599 2.60037 4.46412 2.60459C4.72161 2.84519 4.96644 3.09424 5.22393 3.36017C5.35478 3.49525 5.48986 3.63032 5.62493 3.76962L6.7773 4.92199C7.22474 5.36943 7.22474 5.7831 6.7773 6.23054C6.65489 6.35295 6.5367 6.47537 6.41429 6.59356C6.05971 6.95658 5.72202 7.29427 5.35478 7.62351C5.34634 7.63196 5.3379 7.63618 5.33368 7.64462C4.97066 8.00764 5.0382 8.36221 5.11418 8.60282C5.1184 8.61548 5.12262 8.62814 5.12684 8.64081C5.42654 9.36684 5.84865 10.0507 6.49027 10.8653L6.49449 10.8696C7.65952 12.3048 8.88787 13.4234 10.2429 14.2802C10.4159 14.39 10.5932 14.4786 10.7621 14.5631C10.914 14.639 11.0575 14.7108 11.1799 14.7868C11.1968 14.7952 11.2137 14.8079 11.2306 14.8163C11.3741 14.8881 11.5092 14.9219 11.6485 14.9219C11.9989 14.9219 12.2184 14.7024 12.2901 14.6306L13.7337 13.187C13.8773 13.0435 14.1052 12.8704 14.3711 12.8704C14.6328 12.8704 14.8481 13.035 14.979 13.1785C14.9832 13.1827 14.9832 13.1827 14.9874 13.187L17.3133 15.5128C17.748 15.9434 17.748 16.3866 17.3175 16.834Z" fill="#FF7F8E"/>
<path d="M10.8085 4.7574C11.9144 4.94313 12.919 5.46656 13.7211 6.26857C14.5231 7.07059 15.0423 8.07522 15.2322 9.18116C15.2787 9.45975 15.5193 9.65392 15.7936 9.65392C15.8274 9.65392 15.857 9.6497 15.8907 9.64548C16.2031 9.59483 16.4099 9.29935 16.3593 8.98698C16.1313 7.64888 15.4982 6.42897 14.5315 5.46233C13.5649 4.49569 12.345 3.86252 11.0069 3.63458C10.6945 3.58393 10.4032 3.79076 10.3484 4.09891C10.2935 4.40705 10.4961 4.70675 10.8085 4.7574Z" fill="#FF7F8E"/>
<path d="M19.9768 8.82242C19.6011 6.61899 18.5627 4.61395 16.9671 3.01836C15.3715 1.42277 13.3665 0.384369 11.1631 0.00868772C10.8549 -0.0461871 10.5637 0.16487 10.5088 0.473013C10.4581 0.785377 10.665 1.07664 10.9773 1.13151C12.9444 1.46498 14.7384 2.39785 16.1651 3.82037C17.5919 5.24712 18.5205 7.0411 18.854 9.00815C18.9004 9.28675 19.141 9.48092 19.4154 9.48092C19.4492 9.48092 19.4787 9.4767 19.5125 9.47248C19.8206 9.42604 20.0317 9.13056 19.9768 8.82242Z" fill="#FF7F8E"/>
</g>
<defs>
<clipPath id="clip0">
</clipPath>
</defs>
</svg>
