<svg width="19" height="19" viewBox="0 0 19 19" fill="none" xmlns="http://www.w3.org/2000/svg">
<g clip-path="url(#clip0)">
<path d="M1.10564 10.606C1.10564 15.2345 4.87113 19 9.49956 19C14.128 19 17.8936 15.2345 17.8936 10.606C17.8936 10.3311 17.6706 10.1081 17.3957 10.1081C17.1208 10.1081 16.8978 10.3311 16.8978 10.606C16.8978 14.6854 13.579 18.0042 9.4996 18.0042C5.4202 18.0042 2.10136 14.6854 2.10136 10.606C2.10136 6.52665 5.4202 3.20781 9.4996 3.20781L10.3634 3.20781L9.12828 4.59032C8.94507 4.79535 8.96285 5.11011 9.16788 5.29332C9.37291 5.47653 9.68771 5.45872 9.87088 5.25369L11.6364 3.27743C11.9254 2.95391 11.9254 2.46599 11.6364 2.14247L9.87088 0.166213C9.7725 0.0560734 9.63627 3.93324e-05 9.49941 3.93205e-05C9.38137 3.93102e-05 9.26284 0.0418236 9.16788 0.126582C8.96281 0.309791 8.94507 0.624553 9.12828 0.829581L10.3634 2.21209L9.4996 2.21209C4.87113 2.21209 1.10564 5.97761 1.10564 10.606Z" fill="white"/>
</g>
<defs>
<clipPath id="clip0">
</clipPath>
</defs>
</svg>
