<svg width="37" height="37" viewBox="0 0 37 37" fill="none" xmlns="http://www.w3.org/2000/svg">
<g clip-path="url(#clip0)">
<path d="M33.7049 6.38908C28.6141 4.99421 23.4935 2.82227 18.8964 0.108127C18.6522 -0.0360424 18.3492 -0.0360424 18.1051 0.108127C13.3755 2.90025 8.53154 4.95468 3.29626 6.38908C2.95806 6.48165 2.72363 6.78907 2.72363 7.13978V15.0923C2.72363 23.2816 6.5016 28.7024 9.67102 31.8077C13.0831 35.1511 17.0577 37 18.5008 37C19.9437 37 23.9183 35.1511 27.3304 31.8077C30.4997 28.7025 34.2775 23.2817 34.2775 15.0923V7.1397C34.2775 6.78907 34.0431 6.48165 33.7049 6.38908ZM32.7209 15.0922C32.7209 22.741 29.1972 27.7992 26.2409 30.6958C22.8856 33.9835 19.2981 35.4433 18.5008 35.4433C17.7035 35.4433 14.1158 33.9835 10.7603 30.6958C7.80418 27.7992 4.2803 22.741 4.2803 15.0922V7.73055C9.28671 6.30908 13.9491 4.32532 18.5009 1.68019C22.939 4.25515 27.8341 6.33756 32.7209 7.73026V15.0922Z" fill="#929292"/>
<path d="M11.6022 7.64342C11.4446 7.24343 10.9927 7.04694 10.5927 7.20455C9.20229 7.7524 7.77519 8.25666 6.35105 8.70341C6.02651 8.8053 5.80566 9.10593 5.80566 9.44601V12.4516C5.80566 12.8814 6.1542 13.2299 6.58396 13.2299C7.01373 13.2299 7.36226 12.8814 7.36226 12.4516V10.0148C8.63984 9.60145 9.91605 9.14423 11.1633 8.65275C11.5633 8.49529 11.7598 8.04341 11.6022 7.64342Z" fill="#929292"/>
<path d="M13.0809 7.79094C13.1853 7.79094 13.2913 7.76991 13.393 7.72554L13.4073 7.71933C13.8011 7.54676 13.9784 7.08838 13.8058 6.69475C13.6331 6.30097 13.1721 6.12284 12.7788 6.29526L12.7662 6.30068C12.3722 6.47275 12.1943 6.93077 12.3664 7.32461C12.4941 7.617 12.7806 7.79094 13.0809 7.79094Z" fill="#929292"/>
<path d="M27.7738 25.0965C27.4141 24.8615 26.9318 24.9626 26.6964 25.3224C26.0551 26.304 25.3027 27.2441 24.4598 28.1161C23.7666 28.8331 23.0155 29.5014 22.2273 30.1023C21.8855 30.3629 21.8197 30.8513 22.0803 31.1932C22.2335 31.394 22.4653 31.4996 22.6997 31.4996C22.8643 31.4996 23.0302 31.4477 23.1711 31.3401C24.0213 30.6918 24.8314 29.9711 25.5788 29.198C26.4901 28.2554 27.3046 27.2379 27.9996 26.1738C28.2348 25.8139 28.1336 25.3316 27.7738 25.0965Z" fill="#929292"/>
<path d="M20.4195 31.323L20.3749 31.3494C20.0029 31.5648 19.8758 32.0409 20.0912 32.4128C20.2355 32.6621 20.4967 32.8013 20.7655 32.8013C20.8977 32.8013 21.032 32.7676 21.1546 32.6964L21.2061 32.6661C21.5771 32.4489 21.7017 31.9721 21.4844 31.6012C21.2671 31.2304 20.7902 31.106 20.4195 31.323Z" fill="#929292"/>
<path d="M13.1951 16.9114C12.7172 16.4335 12.0817 16.1704 11.4057 16.1704C10.7297 16.1704 10.0941 16.4336 9.61596 16.9114C8.62932 17.8983 8.62932 19.504 9.61596 20.4908L14.2118 25.0865C14.6897 25.5643 15.3253 25.8274 16.0013 25.8274C16.6774 25.8274 17.313 25.5643 17.791 25.0863L27.385 15.4922C28.3716 14.5051 28.3716 12.8996 27.3849 11.9131C26.9069 11.4352 26.2713 11.1721 25.5952 11.1721C24.9192 11.1721 24.2836 11.4352 23.8056 11.9131L16.0013 19.7174L13.1951 16.9114ZM24.9063 13.0139C25.0902 12.83 25.335 12.7287 25.5953 12.7287C25.8557 12.7287 26.1003 12.83 26.2844 13.0139C26.6641 13.3936 26.6641 14.0118 26.2842 14.3917L16.6903 23.9857C16.5064 24.1696 16.2616 24.2708 16.0013 24.2708C15.741 24.2708 15.4963 24.1696 15.3123 23.9857L10.7166 19.3901C10.3367 19.0102 10.3367 18.3921 10.7165 18.0123C10.9005 17.8284 11.1452 17.727 11.4056 17.727C11.666 17.727 11.9106 17.8283 12.0945 18.0122L15.4509 21.3686C15.5969 21.5145 15.7948 21.5966 16.0013 21.5966C16.2077 21.5966 16.4056 21.5146 16.5515 21.3686L24.9063 13.0139Z" fill="#929292"/>
</g>
<defs>
<clipPath id="clip0">
</clipPath>
</defs>
</svg>
