<svg width="37" height="38" viewBox="0 0 37 38" fill="none" xmlns="http://www.w3.org/2000/svg">
<path d="M31.2188 27.1067C30.4202 27.1067 29.7734 27.7534 29.7734 28.552C29.7734 29.3506 30.4202 29.9973 31.2188 29.9973C32.0173 29.9973 32.6641 29.3506 32.6641 28.552C32.6641 27.7534 32.0173 27.1067 31.2188 27.1067Z" fill="#929292"/>
<path d="M30.4961 21.3254C30.0972 21.3254 29.7734 21.6493 29.7734 22.0484C29.7734 22.4474 30.0972 22.7713 30.4961 22.7713C30.895 22.7713 31.2188 22.4474 31.2188 22.0484C31.2188 21.6493 30.895 21.3254 30.4961 21.3254Z" fill="#929292"/>
<path d="M9.10547 27.1067C8.30688 27.1067 7.66016 27.7534 7.66016 28.552C7.66016 29.3506 8.30688 29.9973 9.10547 29.9973C9.90406 29.9973 10.5508 29.3506 10.5508 28.552C10.5508 27.7534 9.90406 27.1067 9.10547 27.1067Z" fill="#929292"/>
<path d="M33.9626 18.4811L32.7166 13.497C33.1595 13.0733 33.3867 12.5113 33.3867 11.9309C33.3867 10.7354 32.4142 9.76294 31.2188 9.76294H25.4375V7.59497C25.4375 6.39948 24.465 5.427 23.2695 5.427H2.16797C0.972481 5.427 0 6.39948 0 7.59497V26.384C0 27.5795 0.972481 28.552 2.16797 28.552H4.76953C4.76953 30.943 6.71449 32.8879 9.10547 32.8879C11.4964 32.8879 13.4414 30.943 13.4414 28.552H26.8828C26.8828 30.943 28.8278 32.8879 31.2188 32.8879C33.6097 32.8879 35.5547 30.943 35.5547 28.552C35.5547 28.5108 35.5527 28.4699 35.5516 28.4286C36.3942 28.1314 37 27.3272 37 26.384V22.0481C37 20.2516 35.6823 18.7578 33.9626 18.4811ZM31.3771 14.0989L32.4611 18.4348H26.4594L28.1164 16.7778C28.3987 16.4955 28.3987 16.0382 28.1164 15.7559C27.8341 15.4736 27.3768 15.4736 27.0945 15.7559L25.4375 17.4127V14.0989H31.3771ZM31.9414 11.9309C31.9414 12.3298 31.6176 12.6536 31.2188 12.6536H25.4375V11.2083H31.2188C31.6173 11.2083 31.9414 11.5323 31.9414 11.9309ZM9.10547 31.4426C7.51167 31.4426 6.21484 30.1458 6.21484 28.552C6.21484 26.9365 7.5351 25.6614 9.10547 25.6614C10.6795 25.6614 11.9961 26.9399 11.9961 28.552C11.9961 30.1458 10.6993 31.4426 9.10547 31.4426ZM13.1933 27.1067C12.5897 25.4014 10.9561 24.2161 9.10547 24.2161C7.25394 24.2161 5.61978 25.4022 5.01738 27.1067H2.16797C1.76938 27.1067 1.44531 26.7826 1.44531 26.384V7.59497C1.44531 7.19638 1.76938 6.87231 2.16797 6.87231H23.2695C23.6681 6.87231 23.9922 7.19638 23.9922 7.59497V27.1067H13.1933ZM31.2188 31.4426C29.625 31.4426 28.3281 30.1458 28.3281 28.552C28.3281 26.9365 29.6484 25.6614 31.2188 25.6614C32.7928 25.6614 34.1094 26.9399 34.1094 28.552C34.1094 30.1458 32.8125 31.4426 31.2188 31.4426ZM35.2552 26.9687C34.6141 25.3376 33.0192 24.2161 31.2188 24.2161C29.3672 24.2161 27.7331 25.4022 27.1307 27.1067H25.4375V19.8801H33.3867C34.3287 19.8801 35.1321 20.4842 35.4305 21.3254H33.3867C32.9876 21.3254 32.6641 21.6489 32.6641 22.0481C32.6641 22.4473 32.9876 22.7708 33.3867 22.7708H35.5547V26.384C35.5547 26.6243 35.4361 26.8371 35.2552 26.9687V26.9687Z" fill="#929292"/>
<path d="M12.7188 9.76294C9.13257 9.76294 6.21484 12.6807 6.21484 16.2668C6.21484 19.853 9.13257 22.7708 12.7188 22.7708C16.3049 22.7708 19.2227 19.853 19.2227 16.2668C19.2227 12.6807 16.3049 9.76294 12.7188 9.76294ZM12.7188 21.3254C9.92947 21.3254 7.66016 19.0561 7.66016 16.2668C7.66016 13.4776 9.92947 11.2083 12.7188 11.2083C15.508 11.2083 17.7773 13.4776 17.7773 16.2668C17.7773 19.0561 15.508 21.3254 12.7188 21.3254Z" fill="#929292"/>
<path d="M15.6094 15.5442H13.4414V13.3762C13.4414 12.9771 13.1179 12.6536 12.7188 12.6536C12.3196 12.6536 11.9961 12.9771 11.9961 13.3762V16.2668C11.9961 16.666 12.3196 16.9895 12.7188 16.9895H15.6094C16.0085 16.9895 16.332 16.666 16.332 16.2668C16.332 15.8677 16.0085 15.5442 15.6094 15.5442Z" fill="#929292"/>
</svg>
