<svg width="27" height="27" viewBox="0 0 27 27" fill="none" xmlns="http://www.w3.org/2000/svg">
<path d="M15.6767 26.8243C15.5643 26.8426 15.4514 26.8595 15.3381 26.875C15.4514 26.8595 15.5643 26.8426 15.6767 26.8243Z" fill="#C8C8C8"/>
<path d="M15.9468 26.7781C15.8931 26.788 15.8393 26.7971 15.7855 26.8064C15.8393 26.7971 15.8931 26.788 15.9468 26.7781Z" fill="#C8C8C8"/>
<path d="M15.0365 26.9124C14.9048 26.9273 14.7724 26.9405 14.6395 26.9516C14.7724 26.9405 14.9048 26.9273 15.0365 26.9124Z" fill="#C8C8C8"/>
<path d="M15.2959 26.8807C15.2326 26.8892 15.169 26.897 15.1055 26.9044C15.169 26.897 15.2326 26.8892 15.2959 26.8807Z" fill="#C8C8C8"/>
<path d="M16.3143 26.7052C16.2669 26.7153 16.2193 26.7254 16.1718 26.7351C16.2193 26.7254 16.2669 26.7153 16.3143 26.7052Z" fill="#C8C8C8"/>
<path d="M17.2264 26.4786C17.1881 26.4896 17.1498 26.4999 17.1115 26.5106C17.1498 26.4999 17.1881 26.4896 17.2264 26.4786Z" fill="#C8C8C8"/>
<path d="M16.9506 26.554C16.909 26.5649 16.8672 26.5761 16.8254 26.5866C16.8672 26.5761 16.909 26.5651 16.9506 26.554Z" fill="#C8C8C8"/>
<path d="M16.5897 26.6443C16.5456 26.6546 16.5011 26.6642 16.4566 26.6741C16.5011 26.6642 16.5456 26.6546 16.5897 26.6443Z" fill="#C8C8C8"/>
<path d="M14.6352 26.952C14.5642 26.958 14.4931 26.9633 14.4218 26.9681C14.4931 26.9633 14.5642 26.958 14.6352 26.952Z" fill="#C8C8C8"/>
<path d="M27 13.5C27 6.0453 20.9547 0 13.5 0C6.0453 0 0 6.0453 0 13.5C0 20.9547 6.0453 27 13.5 27C13.5793 27 13.6582 26.9984 13.7373 26.9969V16.4877H10.8369V13.1076H13.7373V10.6202C13.7373 7.73547 15.4983 6.16539 18.0716 6.16539C19.3039 6.16539 20.3631 6.25726 20.6719 6.29826V9.31318H18.8974C17.4975 9.31318 17.2264 9.97854 17.2264 10.9547V13.1076H20.5738L20.1375 16.4877H17.2264V26.4784C22.8692 24.8608 27 19.6621 27 13.5Z" fill="#C8C8C8"/>
<path d="M14.392 26.9699C14.2515 26.979 14.1104 26.9862 13.9689 26.9909C14.1104 26.9862 14.2515 26.979 14.392 26.9699Z" fill="#C8C8C8"/>
<path d="M13.9616 26.9913C13.887 26.9938 13.8123 26.9957 13.7375 26.9969C13.8123 26.9957 13.887 26.9938 13.9616 26.9913Z" fill="#C8C8C8"/>
</svg>
