<svg width="27" height="27" viewBox="0 0 27 27" fill="none" xmlns="http://www.w3.org/2000/svg">
<path d="M16.084 13.5C16.084 14.9271 14.9271 16.084 13.5 16.084C12.0729 16.084 10.916 14.9271 10.916 13.5C10.916 12.0729 12.0729 10.916 13.5 10.916C14.9271 10.916 16.084 12.0729 16.084 13.5Z" fill="#C8C8C8"/>
<path d="M19.543 8.92818C19.4188 8.59159 19.2206 8.28693 18.9631 8.03685C18.7131 7.77936 18.4086 7.58119 18.0718 7.45698C17.7986 7.35089 17.3883 7.22462 16.6325 7.19022C15.8149 7.15293 15.5698 7.1449 13.5 7.1449C11.4299 7.1449 11.1848 7.15273 10.3674 7.19001C9.61163 7.22462 9.20109 7.35089 8.92815 7.45698C8.59135 7.58119 8.28668 7.77936 8.03681 8.03685C7.77932 8.28693 7.58115 8.59139 7.45673 8.92818C7.35065 9.20133 7.22437 9.61188 7.18997 10.3677C7.15269 11.1851 7.14465 11.4302 7.14465 13.5002C7.14465 15.57 7.15269 15.8152 7.18997 16.6328C7.22437 17.3886 7.35065 17.7989 7.45673 18.072C7.58115 18.4088 7.77911 18.7133 8.03661 18.9634C8.28668 19.2209 8.59114 19.419 8.92794 19.5432C9.20109 19.6495 9.61163 19.7758 10.3674 19.8102C11.1848 19.8475 11.4297 19.8553 13.4998 19.8553C15.57 19.8553 15.8151 19.8475 16.6323 19.8102C17.3881 19.7758 17.7986 19.6495 18.0718 19.5432C18.7479 19.2825 19.2822 18.7481 19.543 18.072C19.6491 17.7989 19.7754 17.3886 19.81 16.6328C19.8473 15.8152 19.8551 15.57 19.8551 13.5002C19.8551 11.4302 19.8473 11.1851 19.81 10.3677C19.7756 9.61188 19.6493 9.20133 19.543 8.92818ZM13.5 17.4806C11.3014 17.4806 9.51914 15.6986 9.51914 13.5C9.51914 11.3014 11.3014 9.51939 13.5 9.51939C15.6983 9.51939 17.4806 11.3014 17.4806 13.5C17.4806 15.6986 15.6983 17.4806 13.5 17.4806ZM17.638 10.2923C17.1242 10.2923 16.7077 9.87576 16.7077 9.36201C16.7077 8.84826 17.1242 8.43174 17.638 8.43174C18.1517 8.43174 18.5682 8.84826 18.5682 9.36201C18.568 9.87576 18.1517 10.2923 17.638 10.2923Z" fill="#C8C8C8"/>
<path d="M13.5 0C6.0453 0 0 6.0453 0 13.5C0 20.9547 6.0453 27 13.5 27C20.9547 27 27 20.9547 27 13.5C27 6.0453 20.9547 0 13.5 0ZM21.2052 16.696C21.1677 17.5212 21.0365 18.0846 20.8449 18.5777C20.4422 19.619 19.619 20.4422 18.5777 20.8449C18.0848 21.0365 17.5212 21.1675 16.6962 21.2052C15.8695 21.2429 15.6055 21.252 13.5002 21.252C11.3947 21.252 11.1309 21.2429 10.304 21.2052C9.479 21.1675 8.91541 21.0365 8.42246 20.8449C7.90501 20.6502 7.43658 20.3452 7.04931 19.9507C6.65504 19.5636 6.34996 19.095 6.1553 18.5777C5.96372 18.0848 5.8325 17.5212 5.79501 16.6962C5.7569 15.8693 5.74805 15.6053 5.74805 13.5C5.74805 11.3947 5.7569 11.1307 5.79481 10.304C5.8323 9.4788 5.96331 8.91541 6.15488 8.42226C6.34955 7.90501 6.65483 7.43637 7.04931 7.04931C7.43637 6.65483 7.90501 6.34975 8.42226 6.15509C8.91541 5.96352 9.4788 5.8325 10.304 5.79481C11.1307 5.75711 11.3947 5.74805 13.5 5.74805C15.6053 5.74805 15.8693 5.75711 16.696 5.79501C17.5212 5.8325 18.0846 5.96352 18.5777 6.15488C19.095 6.34955 19.5636 6.65483 19.9509 7.04931C20.3452 7.43658 20.6505 7.90501 20.8449 8.42226C21.0367 8.91541 21.1677 9.4788 21.2054 10.304C21.2431 11.1307 21.252 11.3947 21.252 13.5C21.252 15.6053 21.2431 15.8693 21.2052 16.696Z" fill="#C8C8C8"/>
</svg>
