<svg width="37" height="37" viewBox="0 0 37 37" fill="none" xmlns="http://www.w3.org/2000/svg">
<path d="M31.2188 26.4492C30.4202 26.4492 29.7734 27.096 29.7734 27.8945C29.7734 28.6931 30.4202 29.3399 31.2188 29.3399C32.0173 29.3399 32.6641 28.6931 32.6641 27.8945C32.6641 27.096 32.0173 26.4492 31.2188 26.4492Z" fill="#929292"/>
<path d="M30.4961 20.668C30.0972 20.668 29.7734 20.9918 29.7734 21.3906C29.7734 21.7895 30.0972 22.1133 30.4961 22.1133C30.895 22.1133 31.2188 21.7895 31.2188 21.3906C31.2188 20.9918 30.895 20.668 30.4961 20.668Z" fill="#929292"/>
<path d="M9.10547 26.4492C8.30688 26.4492 7.66016 27.096 7.66016 27.8945C7.66016 28.6931 8.30688 29.3399 9.10547 29.3399C9.90406 29.3399 10.5508 28.6931 10.5508 27.8945C10.5508 27.096 9.90406 26.4492 9.10547 26.4492Z" fill="#929292"/>
<path d="M33.9626 17.8237L32.7166 12.8396C33.1595 12.4159 33.3867 11.8538 33.3867 11.2735C33.3867 10.078 32.4142 9.10548 31.2188 9.10548H25.4375V6.93752C25.4375 5.74203 24.465 4.76955 23.2695 4.76955H2.16797C0.972481 4.76955 0 5.74203 0 6.93752V25.7266C0 26.9221 0.972481 27.8945 2.16797 27.8945H4.76953C4.76953 30.2855 6.71449 32.2305 9.10547 32.2305C11.4964 32.2305 13.4414 30.2855 13.4414 27.8945H26.8828C26.8828 30.2855 28.8278 32.2305 31.2188 32.2305C33.6097 32.2305 35.5547 30.2855 35.5547 27.8945C35.5547 27.8533 35.5527 27.8124 35.5516 27.7712C36.3942 27.4739 37 26.6697 37 25.7266V21.3906C37 19.5942 35.6823 18.1003 33.9626 17.8237ZM31.3771 13.4414L32.4611 17.7774H26.4594L28.1164 16.1203C28.3987 15.838 28.3987 15.3807 28.1164 15.0984C27.8341 14.8162 27.3768 14.8162 27.0945 15.0984L25.4375 16.7552V13.4414H31.3771ZM31.9414 11.2735C31.9414 11.6723 31.6176 11.9961 31.2188 11.9961H25.4375V10.5508H31.2188C31.6173 10.5508 31.9414 10.8749 31.9414 11.2735ZM9.10547 30.7852C7.51167 30.7852 6.21484 29.4883 6.21484 27.8945C6.21484 26.279 7.5351 25.0039 9.10547 25.0039C10.6795 25.0039 11.9961 26.2824 11.9961 27.8945C11.9961 29.4883 10.6993 30.7852 9.10547 30.7852ZM13.1933 26.4492C12.5897 24.7439 10.9561 23.5586 9.10547 23.5586C7.25394 23.5586 5.61978 24.7448 5.01738 26.4492H2.16797C1.76938 26.4492 1.44531 26.1252 1.44531 25.7266V6.93752C1.44531 6.53893 1.76938 6.21486 2.16797 6.21486H23.2695C23.6681 6.21486 23.9922 6.53893 23.9922 6.93752V26.4492H13.1933ZM31.2188 30.7852C29.625 30.7852 28.3281 29.4883 28.3281 27.8945C28.3281 26.279 29.6484 25.0039 31.2188 25.0039C32.7928 25.0039 34.1094 26.2824 34.1094 27.8945C34.1094 29.4883 32.8125 30.7852 31.2188 30.7852ZM35.2552 26.3112C34.6141 24.6801 33.0192 23.5586 31.2188 23.5586C29.3672 23.5586 27.7331 24.7448 27.1307 26.4492H25.4375V19.2227H33.3867C34.3287 19.2227 35.1321 19.8268 35.4305 20.668H33.3867C32.9876 20.668 32.6641 20.9915 32.6641 21.3906C32.6641 21.7898 32.9876 22.1133 33.3867 22.1133H35.5547V25.7266C35.5547 25.9668 35.4361 26.1796 35.2552 26.3112Z" fill="#929292"/>
<path d="M12.7188 9.10548C9.13257 9.10548 6.21484 12.0232 6.21484 15.6094C6.21484 19.1956 9.13257 22.1133 12.7188 22.1133C16.3049 22.1133 19.2227 19.1956 19.2227 15.6094C19.2227 12.0232 16.3049 9.10548 12.7188 9.10548ZM12.7188 20.668C9.92947 20.668 7.66016 18.3987 7.66016 15.6094C7.66016 12.8201 9.92947 10.5508 12.7188 10.5508C15.508 10.5508 17.7773 12.8201 17.7773 15.6094C17.7773 18.3987 15.508 20.668 12.7188 20.668Z" fill="#929292"/>
<path d="M15.6094 14.8867H13.4414V12.7188C13.4414 12.3196 13.1179 11.9961 12.7188 11.9961C12.3196 11.9961 11.9961 12.3196 11.9961 12.7188V15.6094C11.9961 16.0085 12.3196 16.332 12.7188 16.332H15.6094C16.0085 16.332 16.332 16.0085 16.332 15.6094C16.332 15.2102 16.0085 14.8867 15.6094 14.8867Z" fill="#929292"/>
</svg>
