<svg width="23" height="23" viewBox="0 0 23 23" fill="none" xmlns="http://www.w3.org/2000/svg">
<path d="M22.2652 20.9494L16.7911 15.2561C18.1986 13.5829 18.9698 11.4778 18.9698 9.28624C18.9698 4.16589 14.8039 0 9.68352 0C4.56317 0 0.397278 4.16589 0.397278 9.28624C0.397278 14.4066 4.56317 18.5725 9.68352 18.5725C11.6058 18.5725 13.4376 17.9927 15.0037 16.8921L20.5193 22.6286C20.7499 22.868 21.06 23 21.3923 23C21.7068 23 22.0051 22.8801 22.2317 22.6621C22.7129 22.199 22.7283 21.431 22.2652 20.9494ZM9.68352 2.4225C13.4683 2.4225 16.5473 5.50149 16.5473 9.28624C16.5473 13.071 13.4683 16.15 9.68352 16.15C5.89877 16.15 2.81978 13.071 2.81978 9.28624C2.81978 5.50149 5.89877 2.4225 9.68352 2.4225Z" fill="#FA4742"/>
</svg>
