<svg width="41" height="41" viewBox="0 0 41 41" fill="none" xmlns="http://www.w3.org/2000/svg">
<path d="M20.5 20.4991C20.942 20.4991 21.3008 20.1403 21.3008 19.6983C21.3008 19.2563 20.942 18.8975 20.5 18.8975C20.058 18.8975 19.6992 19.2563 19.6992 19.6983C19.6992 20.1403 20.058 20.4991 20.5 20.4991Z" fill="white"/>
<path d="M37.7968 14.0928H33.0613L25.7767 4.07085C25.1223 2.94944 23.6809 2.5503 22.536 3.18436C21.3755 3.82905 20.9582 5.29079 21.6032 6.45161C21.6217 6.48445 21.642 6.51605 21.6648 6.54608L27.3785 14.0928H13.6214L19.3351 6.54608C19.3576 6.51605 19.3782 6.48445 19.3967 6.45161C20.0401 5.29361 19.6276 3.83062 18.463 3.18373C17.3206 2.55093 15.8792 2.94976 15.2236 4.07022L7.93867 14.0928H3.20312C1.43702 14.0928 0 15.5298 0 17.2959C0 18.6889 0.904005 19.9016 2.17743 20.3308C2.31319 20.4359 2.48273 20.4991 2.66728 20.4991C2.7042 20.4991 2.73892 20.5013 2.7752 20.5063C3.11991 20.5526 3.39299 20.8141 3.45555 21.1563L6.17977 36.144C6.38778 37.2867 7.38188 38.1163 8.54363 38.1163H32.4563C33.618 38.1163 34.6121 37.2867 34.8202 36.1437L37.5444 21.1566C37.6069 20.8141 37.8803 20.5526 38.2263 20.5063C38.2613 20.5013 38.296 20.4991 38.3326 20.4991C38.5184 20.4991 38.6892 20.4353 38.825 20.3289C40.0994 19.8969 40.9999 18.6864 40.9999 17.2959C40.9999 15.5298 39.5629 14.0928 37.7968 14.0928ZM22.9814 5.63175C22.7985 5.25294 22.9405 4.79155 23.3127 4.5851C23.7003 4.3702 24.1889 4.50878 24.4025 4.89384C24.4182 4.92262 24.436 4.95015 24.4551 4.97642L31.0812 14.0928H29.3871L22.9814 5.63175ZM16.5449 4.97673C16.5639 4.95046 16.5811 4.92324 16.5971 4.89509C16.8114 4.50972 17.3003 4.37083 17.6863 4.58448C18.0591 4.79155 18.2018 5.25232 18.0185 5.63175L11.6129 14.0928H9.91872L16.5449 4.97673ZM37.7968 18.8975H23.7031C23.2608 18.8975 22.9023 19.256 22.9023 19.6983C22.9023 20.1406 23.2608 20.4909 23.7031 20.4909H36.067C36.0251 20.6104 35.9919 20.7343 35.9688 20.8619L33.2442 35.8572C33.1751 36.2382 32.8435 36.5147 32.4563 36.5147H8.54363C8.15607 36.5147 7.82481 36.2382 7.75536 35.8575L5.03115 20.8697C5.008 20.7421 4.97484 20.6182 4.93293 20.4991H17.2968C17.7391 20.4991 18.0976 20.1406 18.0976 19.6983C18.0976 19.256 17.7391 18.8975 17.2968 18.8975H3.20312C2.31256 18.8975 1.60156 18.1718 1.60156 17.2959C1.60156 16.4129 2.32007 15.6944 3.20312 15.6944H37.7968C38.6799 15.6944 39.3984 16.4129 39.3984 17.2959C39.3984 18.1852 38.6708 18.8975 37.7968 18.8975Z" fill="white"/>
<path d="M20.5 22.9014C19.1753 22.9014 18.0977 23.979 18.0977 25.3037V31.71C18.0977 33.0347 19.1753 34.1123 20.5 34.1123C21.8247 34.1123 22.9023 33.0347 22.9023 31.71V25.3037C22.9023 23.9765 21.8272 22.9014 20.5 22.9014ZM21.3008 31.71C21.3008 32.1517 20.9417 32.5108 20.5 32.5108C20.0583 32.5108 19.6992 32.1517 19.6992 31.71V25.3037C19.6992 24.8621 20.0583 24.503 20.5 24.503C20.942 24.503 21.3008 24.8617 21.3008 25.3037V31.71Z" fill="white"/>
<path d="M28.5078 34.1123C29.8325 34.1123 30.9101 33.0347 30.9101 31.71V25.3037C30.9101 23.9765 29.835 22.9014 28.5078 22.9014C27.1831 22.9014 26.1055 23.979 26.1055 25.3037V31.71C26.1055 33.0347 27.1831 34.1123 28.5078 34.1123ZM27.707 25.3037C27.707 24.8621 28.0661 24.503 28.5078 24.503C28.9498 24.503 29.3086 24.8617 29.3086 25.3037V31.71C29.3086 32.1517 28.9495 32.5108 28.5078 32.5108C28.0661 32.5108 27.707 32.1517 27.707 31.71V25.3037Z" fill="white"/>
<path d="M12.4922 22.9014C11.1675 22.9014 10.0898 23.979 10.0898 25.3037V31.71C10.0898 33.0347 11.1675 34.1123 12.4922 34.1123C13.8169 34.1123 14.8945 33.0347 14.8945 31.71V25.3037C14.8945 23.9765 13.8194 22.9014 12.4922 22.9014ZM13.293 31.71C13.293 32.1517 12.9339 32.5108 12.4922 32.5108C12.0505 32.5108 11.6914 32.1517 11.6914 31.71V25.3037C11.6914 24.8621 12.0505 24.503 12.4922 24.503C12.9342 24.503 13.293 24.8614 13.293 25.3037V31.71Z" fill="white"/>
</svg>
