<svg width="27" height="27" viewBox="0 0 27 27" fill="none" xmlns="http://www.w3.org/2000/svg">
<path d="M0.75 13.5C0.75 20.5417 6.45827 26.25 13.5 26.25C20.5417 26.25 26.25 20.5417 26.25 13.5C26.25 6.45827 20.5417 0.75 13.5 0.75C6.45827 0.75 0.75 6.45827 0.75 13.5Z" stroke="#FF7F8E" stroke-width="1.5"/>
<path d="M10.4898 14.8095C9.27353 13.8874 8.48558 12.4222 8.48558 10.775C8.48558 7.99173 10.7351 5.72726 13.5001 5.72726C16.265 5.72726 18.5145 7.99173 18.5145 10.775C18.5145 12.4222 17.7267 13.8874 16.5105 14.8095C19.7669 16.04 22.0909 19.2063 22.0909 22.9091H20.5393C20.5393 19.0017 17.3815 15.823 13.4999 15.823C9.6186 15.823 6.46077 19.0017 6.46077 22.9091H4.90913C4.90933 19.2063 7.23316 16.04 10.4898 14.8095ZM16.9628 10.775C16.9628 8.85286 15.4096 7.28925 13.5001 7.28925C11.5907 7.28925 10.0374 8.85286 10.0374 10.775C10.0374 12.6972 11.5907 14.261 13.5001 14.261C15.4096 14.261 16.9628 12.6972 16.9628 10.775Z" fill="#FF7F8E"/>
</svg>
