<svg width="27" height="27" viewBox="0 0 27 27" fill="none" xmlns="http://www.w3.org/2000/svg">
<path d="M13.5 0C6.04441 0 0 6.04413 0 13.5C0 20.9559 6.04441 27 13.5 27C20.9556 27 27 20.9559 27 13.5C27 6.04413 20.9556 0 13.5 0ZM20.3479 14.9601C20.9771 15.5746 21.6428 16.153 22.2077 16.8312C22.4579 17.1311 22.6938 17.4413 22.8734 17.7902C23.1297 18.2876 22.8982 18.8332 22.453 18.8627L19.6872 18.8622C18.9729 18.9213 18.4045 18.6332 17.9252 18.1448C17.5427 17.7556 17.1877 17.3399 16.8193 16.9375C16.6687 16.7723 16.5102 16.6168 16.3213 16.4944C15.9442 16.2492 15.6166 16.3243 15.4006 16.7182C15.1805 17.119 15.1302 17.5631 15.1092 18.0092C15.0791 18.6614 14.8825 18.8318 14.2281 18.8624C12.8299 18.9279 11.5032 18.7158 10.2702 18.0109C9.18249 17.3891 8.34058 16.5116 7.60696 15.518C6.17837 13.5812 5.08429 11.4555 4.10124 9.26867C3.87999 8.77617 4.04185 8.51266 4.58517 8.50245C5.48784 8.48504 6.39051 8.48725 7.29318 8.50162C7.66054 8.50742 7.90361 8.71762 8.04476 9.06427C8.53255 10.2644 9.13056 11.4063 9.87993 12.4653C10.0796 12.7473 10.2835 13.0285 10.5738 13.2277C10.8942 13.4475 11.1384 13.3749 11.2895 13.0172C11.3861 12.7899 11.4278 12.5468 11.4488 12.3032C11.5206 11.4687 11.5292 10.6345 11.4049 9.80342C11.3276 9.2833 11.0351 8.94743 10.5166 8.84909C10.2525 8.7991 10.2912 8.70132 10.4197 8.55051C10.6426 8.28976 10.8514 8.12845 11.2687 8.12845L14.3936 8.1279C14.886 8.22457 14.9965 8.44555 15.0634 8.94163L15.0661 12.4142C15.0603 12.6062 15.1625 13.1752 15.5073 13.3008C15.7835 13.392 15.9658 13.1705 16.1309 12.9956C16.8803 12.2004 17.4142 11.2618 17.8924 10.2904C18.1034 9.86197 18.2854 9.41865 18.4622 8.9745C18.5937 8.64608 18.7981 8.48449 19.1688 8.49002L22.1778 8.49361C22.2665 8.49361 22.3566 8.49444 22.4444 8.50963C22.9515 8.59636 23.0905 8.81457 22.9336 9.30927C22.6866 10.0865 22.2068 10.734 21.7378 11.3831C21.2351 12.078 20.699 12.7487 20.2012 13.4467C19.7438 14.0847 19.78 14.406 20.3479 14.9601Z" fill="#C8C8C8"/>
</svg>
