<svg width="20" height="20" viewBox="0 0 20 20" fill="none" xmlns="http://www.w3.org/2000/svg">
<g clip-path="url(#clip0)">
<path d="M19.3871 7.16973V6.79238C19.3871 5.01872 18.3306 4.15081 17.5759 3.50933C17.5004 3.43396 17.3495 3.32074 17.2362 3.16983C17.1607 3.0943 17.1607 2.98108 17.1607 2.90555C17.1607 2.71695 17.2739 2.5282 17.4248 2.41514L17.4627 2.3773C17.5004 2.33961 17.5382 2.30192 17.5759 2.26408C17.5759 2.26408 17.6136 2.22639 17.6136 2.1887C17.6514 2.15086 17.6891 2.07548 17.7268 2.03764C17.7268 1.99995 17.7647 1.99995 17.7647 1.96211C17.8023 1.88673 17.8023 1.84889 17.84 1.77351V1.73582C17.84 1.66029 17.8779 1.58476 17.8779 1.4717V1.13204C17.8777 0.490565 17.3872 0 16.7457 0H12.5947C11.9533 0 11.4627 0.490565 11.4627 1.13204V1.50938C11.4627 1.58491 11.4627 1.69813 11.5004 1.77366V1.81135C11.5004 1.88688 11.5382 1.92457 11.5759 1.99995L11.6137 2.03779C11.6514 2.11317 11.6891 2.15101 11.727 2.1887L11.7647 2.22639C11.8023 2.30192 11.8779 2.33961 11.9533 2.37745C12.1043 2.49067 12.2174 2.67926 12.2552 2.83032C12.2552 2.94354 12.2552 3.05661 12.1797 3.13214C12.1042 3.20767 12.0665 3.24536 12.0665 3.28305C11.9909 3.35858 11.8779 3.43411 11.8023 3.50949C11.0098 4.15096 9.95331 5.01887 9.95331 6.79253V11.0566C9.27414 10.4906 9.04771 10.0001 8.97217 9.69808C9.34952 9.50949 9.61365 9.13214 9.61365 8.67927C9.61365 8.03779 9.12324 7.54723 8.48161 7.54723H3.95331C3.31183 7.54723 2.82127 8.03764 2.82127 8.67927C2.82127 9.13214 3.12308 9.54718 3.50043 9.73593C3.42505 10.0377 3.16093 10.5283 2.51945 11.0566C1.04776 12.3018 0.557194 14.0755 0.632572 15.6604V15.7736C0.632572 15.9622 0.670413 16.1131 0.708102 16.3019C0.708102 16.3396 0.708102 16.3774 0.745791 16.4528C0.783632 16.6038 0.821321 16.7547 0.85901 16.9057V16.9812C0.896851 17.0944 0.93454 17.2453 0.972381 17.3585C0.972381 17.3962 1.01007 17.4717 1.04776 17.5094V17.5473L1.12329 17.7359C1.76476 19.132 2.97233 20 4.40634 20H8.02889C8.85896 20 9.6138 19.6981 10.2553 19.1699C10.5949 19.6604 11.1232 20 11.7647 20H17.5759C18.557 20 19.3871 19.2076 19.3871 18.1888V7.16973ZM1.6137 16.9432C1.57601 16.83 1.53832 16.7546 1.53832 16.6414C1.50048 16.5658 1.50048 16.5282 1.50048 16.4526C1.50048 16.3772 1.46279 16.3394 1.46279 16.264C1.4251 15.9622 1.38726 15.6602 1.38726 15.3584C1.38726 15.0188 1.4251 14.6414 1.50048 14.2641C1.50048 14.2641 1.50048 14.2641 1.50048 14.2262C1.50048 14.1509 1.53832 14.0753 1.53832 13.9621C1.53832 13.9244 1.57601 13.8489 1.57601 13.8112C1.6137 13.7357 1.6137 13.6603 1.65154 13.5848C1.68923 13.5094 1.72692 13.4339 1.72692 13.3585C1.72692 13.3206 1.76476 13.2829 1.76476 13.2451H4.97228C5.19856 13.2451 5.34962 13.3962 5.34962 13.6226V16.6414C5.34962 16.8678 5.19856 17.0187 4.97228 17.0187H1.57601C1.65154 16.9809 1.6137 16.9432 1.6137 16.9432ZM10.6326 17.4338C10.5948 17.5093 10.5571 17.6225 10.5194 17.6979C10.5194 17.7357 10.4816 17.7734 10.4816 17.7734C10.3683 17.962 10.2551 18.1508 10.1042 18.3017L9.99099 18.4149C9.46274 18.981 8.78343 19.2828 8.02873 19.2828H4.40618C3.38736 19.2828 2.51945 18.7169 1.99105 17.7734H5.04766C5.68913 17.7734 6.17985 17.2828 6.17985 16.6414V13.6225C6.17985 12.981 5.68928 12.4904 5.04766 12.4904H2.21749C2.44392 12.1884 2.67036 11.8866 2.97218 11.6602C3.84009 10.9432 4.10437 10.264 4.21743 9.84899H4.708C4.93444 9.84899 5.08534 9.69793 5.08534 9.47165C5.08534 9.24521 4.93444 9.0943 4.708 9.0943H3.91562C3.68918 9.0943 3.53827 8.94324 3.53827 8.7168C3.53827 8.49052 3.68918 8.33945 3.91562 8.33945H8.44392C8.67021 8.33945 8.82127 8.49052 8.82127 8.7168C8.82127 8.94324 8.67021 9.0943 8.44392 9.0943H6.63257C6.40613 9.0943 6.25522 9.24521 6.25522 9.47165C6.25522 9.69793 6.40613 9.84899 6.63257 9.84899H8.17964C8.29301 10.264 8.55714 10.9433 9.4249 11.6602C9.61365 11.8113 9.8024 11.9998 9.95331 12.1884L9.99099 12.264C10.0665 12.3772 10.1419 12.4904 10.2551 12.6036C10.2928 12.6413 10.2928 12.6792 10.3307 12.7545C10.3683 12.8301 10.406 12.8678 10.4439 12.9433C10.4816 13.0187 10.5571 13.1319 10.5948 13.2074V13.2451C11.01 14.1507 11.123 15.2074 11.01 16.1507C11.01 16.2262 10.9721 16.3394 10.9721 16.4149C10.9721 16.4903 10.9344 16.5658 10.9344 16.6412C10.9344 16.6791 10.9344 16.7168 10.8967 16.7544C10.8589 16.9432 10.7835 17.1318 10.708 17.3205C10.6702 17.3205 10.6702 17.3584 10.6326 17.4338ZM18.6324 16.2262H15.2361V7.92442H18.6324V16.2262ZM18.6324 7.16973H14.4816V16.9809H18.6324V18.1884C18.6324 18.7545 18.1795 19.2451 17.5758 19.2451H11.7647C11.3495 19.2451 10.9721 18.981 10.8212 18.6036C11.0853 18.3017 11.2741 17.9243 11.4627 17.5093C11.4627 17.5093 11.4627 17.4714 11.5004 17.4714C11.5004 17.4338 11.5382 17.3959 11.5382 17.3582C11.5759 17.2827 11.5759 17.2073 11.6137 17.1318V17.0941C12.0665 15.547 11.9533 13.4715 10.7458 11.8866V6.79238C10.7458 5.35838 11.5759 4.67921 12.3306 4.07543C12.4438 3.9999 12.5193 3.92437 12.5947 3.84899C12.6326 3.8113 12.7081 3.73577 12.7458 3.69808C12.9722 3.43396 13.0476 3.13199 13.0099 2.79233C13.0099 2.75464 12.9722 2.67911 12.9722 2.64142H13.1231C13.3496 2.64142 13.5005 2.49051 13.5005 2.26408C13.5005 2.03764 13.3496 1.88673 13.1231 1.88673H12.6326C12.5572 1.88673 12.444 1.84889 12.4063 1.8112L12.3684 1.77351C12.3308 1.73567 12.3308 1.69798 12.2929 1.66029C12.2929 1.66029 12.2929 1.66029 12.2929 1.62245C12.2929 1.58476 12.2552 1.54707 12.2552 1.50923V1.13189C12.2552 0.905448 12.4063 0.75454 12.6326 0.75454H16.7835C17.0098 0.75454 17.1609 0.905448 17.1609 1.13189V1.50923C17.1609 1.54707 17.1609 1.62245 17.123 1.66029C17.123 1.66029 17.123 1.69798 17.0853 1.69798C17.0477 1.73567 17.0477 1.77351 17.0098 1.77351C16.8966 1.84889 16.8212 1.88673 16.7457 1.88673H14.5948C14.3684 1.88673 14.2175 2.03764 14.2175 2.26408C14.2175 2.49051 14.3684 2.64142 14.5948 2.64142H16.4439C16.4439 2.71695 16.4062 2.79233 16.4062 2.86786C16.4062 3.24521 16.5194 3.58486 16.8212 3.81115C16.8967 3.88668 17.0098 3.96221 17.123 4.03759C17.84 4.64137 18.6703 5.32053 18.6703 6.75454V7.16973H18.6324Z" fill="#FF7F8E"/>
</g>
<defs>
<clipPath id="clip0">
</clipPath>
</defs>
</svg>
