<svg width="20" height="20" viewBox="0 0 20 20" fill="none" xmlns="http://www.w3.org/2000/svg">
<g clip-path="url(#clip0)">
<path d="M19.6791 6.64902C19.4438 6.24142 19.1017 5.91947 18.691 5.71245C18.8615 5.47858 18.9879 5.21461 19.0644 4.92907C19.2295 4.31315 19.1448 3.66985 18.826 3.11759C18.5071 2.56538 17.9923 2.17036 17.3765 2.00536C17.0755 1.92474 16.7632 1.90454 16.4559 1.94446C16.1541 1.05007 15.4172 0.345249 14.4919 0.0973258C13.5666 -0.150636 12.5761 0.0913494 11.8675 0.715004C11.6213 0.526806 11.3407 0.388099 11.0398 0.307476C10.424 0.142442 9.78062 0.227127 9.22837 0.545946C8.67616 0.864766 8.28117 1.37956 8.11614 1.99544C8.03966 2.28094 8.01708 2.57273 8.04778 2.86045C7.17218 2.81014 6.33826 3.24658 5.8812 3.99749C5.4077 3.785 4.84115 3.79961 4.36398 4.08722C4.35421 4.09312 4.34495 4.09979 4.33531 4.10589C4.25996 4.04179 4.17871 3.98324 4.09078 3.93246C3.30901 3.4811 2.30587 3.74996 1.85452 4.5317C1.80217 4.62236 1.75999 4.71657 1.72628 4.81278C1.70682 4.81173 1.68741 4.81001 1.66792 4.80966C1.23098 4.80095 0.816498 4.96391 0.501506 5.26722C0.186515 5.57054 0.0085123 5.97834 0.000270343 6.41555C-0.011409 7.03624 0.322058 7.60232 0.87052 7.89293L2.38149 8.69361C2.12466 8.92642 1.91428 9.21145 1.76714 9.53699C1.44968 10.2394 1.4639 11.0384 1.80616 11.7291L3.05893 14.2571C3.15471 14.4504 3.38904 14.5296 3.58236 14.4337C3.77567 14.3379 3.85473 14.1035 3.75895 13.9103L3.3767 13.1388L4.83045 12.7493C5.0388 12.6935 5.16247 12.4793 5.10665 12.2709C5.05079 12.0625 4.83662 11.9388 4.62823 11.9947L3.02288 12.4248L2.50622 11.3822C2.26833 10.9021 2.25845 10.3469 2.47907 9.8587C2.69969 9.37051 3.123 9.01103 3.64044 8.8724L4.71733 8.58385C5.23477 8.44518 5.78113 8.54491 6.21627 8.85736C6.46017 9.03247 6.6518 9.26211 6.77922 9.52422L5.10486 9.97288C4.8965 10.0287 4.77283 10.2429 4.82865 10.4513C4.87541 10.6258 5.03322 10.7409 5.20571 10.7409C5.23915 10.7409 5.27321 10.7366 5.30708 10.7275L6.96055 10.2844L7.17417 13.6429L6.161 13.9143C5.95264 13.9702 5.82898 14.1844 5.88479 14.3928C5.93155 14.5673 6.08936 14.6824 6.26185 14.6824C6.29529 14.6824 6.32935 14.678 6.36322 14.669L7.22476 14.4381L7.30155 15.6455L6.67016 15.8147C6.46181 15.8705 6.33814 16.0847 6.39396 16.2931C6.44072 16.4676 6.59852 16.5827 6.77102 16.5827C6.80446 16.5827 6.83852 16.5784 6.87238 16.5693L7.35214 16.4407L7.48307 18.499C7.50342 18.8191 7.29335 19.1118 6.98347 19.1948C6.67364 19.2777 6.34533 19.1295 6.20287 18.842L5.32008 17.0605C5.22427 16.8673 4.98994 16.7882 4.79666 16.884C4.60338 16.9798 4.52428 17.2141 4.6201 17.4074L5.50289 19.1889C5.75273 19.6931 6.26779 19.9988 6.81098 19.9988C6.93531 19.9988 7.06125 19.9827 7.1857 19.9494C7.85368 19.7704 8.30664 19.1396 8.26278 18.4494L7.73427 10.1407C7.68533 9.37145 7.29815 8.6724 6.67204 8.22281C6.37552 8.00988 6.04295 7.86657 5.69609 7.79489L6.23369 6.93722C6.52681 7.22928 6.89242 7.44177 7.2996 7.55087C7.49377 7.6029 7.69424 7.62962 7.89778 7.63071C8.20125 7.95379 8.58343 8.183 9.01385 8.29831C9.26083 8.36448 9.51243 8.3889 9.75969 8.37495C9.78422 9.12571 9.69867 9.87292 9.50352 10.6016L8.73921 13.4556C8.66433 13.735 8.70276 14.0268 8.84737 14.2773C8.99197 14.5278 9.22548 14.7069 9.50485 14.7818L11.4593 15.3055C11.5528 15.3305 11.6467 15.3425 11.7392 15.3425C12.2173 15.3425 12.6559 15.023 12.7854 14.5398L13.5665 11.6233C13.7565 10.9139 14.0457 10.2403 14.4271 9.61582C14.6406 9.75945 14.8789 9.86991 15.1356 9.9387C15.566 10.054 16.0116 10.0466 16.4359 9.91854C16.6128 10.0194 16.7998 10.0965 16.9939 10.1485C17.2001 10.2038 17.4072 10.2301 17.6112 10.2301C18.6651 10.2301 19.6322 9.52574 19.9176 8.4605C20.0826 7.84454 19.998 7.20119 19.6791 6.64902ZM5.9421 5.04746C6.10963 5.32539 6.10662 5.66885 5.93425 5.94385L4.78846 7.77176C4.78494 7.77231 4.78147 7.77309 4.77795 7.77368L4.90681 5.44054C4.92029 5.19672 4.87935 4.95973 4.79287 4.74263C5.19352 4.51916 5.70355 4.65165 5.9421 5.04746ZM2.5311 4.92231C2.68945 4.64806 2.97773 4.49455 3.27373 4.49455C3.41881 4.49455 3.5658 4.53142 3.70017 4.60904C3.98121 4.7713 4.14469 5.0734 4.1268 5.39742L3.98461 7.97137L3.9659 7.97637L2.55578 5.81834C2.37829 5.54671 2.3688 5.20336 2.5311 4.92231ZM1.23633 7.2026C0.94958 7.05065 0.775249 6.75468 0.781381 6.43024C0.785678 6.20169 0.878761 5.98849 1.04341 5.8299C1.20789 5.67151 1.42449 5.58702 1.65237 5.59073C1.68663 5.81975 1.76948 6.04318 1.90182 6.24571L3.18014 8.20207C3.16905 8.20632 3.15807 8.21074 3.14706 8.21515L1.23633 7.2026ZM12.8118 11.4212L12.6198 12.1379L12.2457 12.0377C12.0374 11.9818 11.8232 12.1055 11.7673 12.3139C11.7115 12.5223 11.8351 12.7365 12.0435 12.7923L12.4177 12.8926L12.0308 14.3376C11.9877 14.4983 11.822 14.594 11.6614 14.5509L9.70695 14.0272C9.62914 14.0063 9.56415 13.9564 9.52383 13.8867C9.48356 13.8169 9.47286 13.7356 9.49372 13.6578L9.62602 13.1638L10.3319 13.353C10.3658 13.362 10.3998 13.3664 10.4333 13.3664C10.6057 13.3664 10.7636 13.2513 10.8103 13.0768C10.8662 12.8684 10.7425 12.6542 10.5341 12.5984L9.82812 12.4092L10.2581 10.8037C10.2687 10.7641 10.2786 10.7243 10.2886 10.6847L11.0251 10.882C11.0589 10.8911 11.093 10.8954 11.1264 10.8954C11.2989 10.8954 11.4567 10.7803 11.5035 10.6058C11.5594 10.3974 11.4357 10.1832 11.2273 10.1274L10.4452 9.9178C10.5337 9.35004 10.5633 8.77529 10.5342 8.1991C10.7933 8.09297 11.0343 7.94176 11.244 7.74981C11.4335 7.94559 11.6565 8.10465 11.9036 8.22042L11.7015 8.97447C11.6457 9.18286 11.7694 9.39703 11.9777 9.45289C12.0116 9.46195 12.0456 9.46629 12.0791 9.46629C12.2516 9.46629 12.4094 9.35117 12.4562 9.17669L12.6575 8.42522C12.9342 8.45073 13.2119 8.42468 13.4785 8.34859C13.5608 8.60928 13.687 8.85189 13.8489 9.06704C13.3844 9.79468 13.0356 10.5853 12.8118 11.4212ZM19.163 8.25824C19.052 8.67256 18.7862 9.01892 18.4148 9.23337C18.0432 9.44785 17.6105 9.50476 17.1961 9.39379C17.0234 9.3475 16.8582 9.2709 16.7053 9.1661C16.5982 9.09278 16.4617 9.07739 16.341 9.12505C16.0175 9.25282 15.6706 9.27313 15.3378 9.18399C14.6904 9.01052 14.2153 8.44413 14.1556 7.77466C14.1439 7.64306 14.0665 7.52634 13.9498 7.46435C13.8332 7.4024 13.6931 7.40357 13.5775 7.46748C13.2404 7.65388 12.8509 7.70188 12.4808 7.60275C12.1107 7.50357 11.7974 7.26721 11.5987 6.93722C11.5306 6.82406 11.4099 6.753 11.2778 6.74836C11.1457 6.74304 11.0204 6.80605 10.9445 6.91417C10.5581 7.46416 9.86343 7.71712 9.21603 7.54365C8.88319 7.45443 8.59292 7.26334 8.37668 6.991C8.29598 6.88937 8.17016 6.83425 8.04067 6.84445C7.85579 6.85866 7.67447 6.84245 7.50174 6.79621C7.16706 6.70652 6.87406 6.51309 6.66098 6.24489C6.92465 5.74014 6.90895 5.13809 6.61118 4.64412C6.57759 4.58841 6.54091 4.53576 6.50196 4.48553C6.84871 3.83437 7.60127 3.49766 8.33305 3.69375C8.36273 3.70168 8.39679 3.71356 8.43289 3.72609L8.44507 3.73035C8.58991 3.78055 8.75073 3.74148 8.85631 3.63032C8.9619 3.51919 8.99271 3.35657 8.9351 3.21451C8.80241 2.88729 8.78014 2.53566 8.87073 2.19766C8.98174 1.7833 9.24751 1.43698 9.61899 1.22253C9.9905 1.00804 10.4232 0.951052 10.8376 1.0621C11.1277 1.13984 11.3901 1.29839 11.5964 1.52065C11.6722 1.60232 11.779 1.6476 11.8908 1.64541C12.0023 1.64306 12.1075 1.59322 12.1798 1.50842C12.6952 0.904335 13.5234 0.646608 14.2897 0.851993C15.0561 1.05734 15.6444 1.69455 15.7887 2.47542C15.809 2.58507 15.8751 2.68081 15.9705 2.73858C16.0658 2.79635 16.1813 2.81057 16.2879 2.77772C16.5776 2.68839 16.8841 2.68229 17.1742 2.75999C18.0295 2.98916 18.539 3.87152 18.3098 4.72689C18.2192 5.06489 18.0241 5.35828 17.7456 5.57534C17.6247 5.6696 17.5701 5.82588 17.606 5.97494C17.6418 6.124 17.7617 6.23825 17.9122 6.26708L17.9239 6.26931C17.9618 6.27653 17.9975 6.28337 18.0274 6.29138C18.8828 6.52055 19.3922 7.40287 19.163 8.25824Z" fill="#FF7F8E"/>
<path d="M4.46583 15.3824C4.39279 15.3097 4.2924 15.2679 4.18927 15.2679C4.08654 15.2679 3.98615 15.3097 3.9131 15.3824C3.84044 15.4551 3.79865 15.5558 3.79865 15.6586C3.79865 15.7613 3.84044 15.8621 3.9131 15.9347C3.98575 16.0074 4.08654 16.0492 4.18927 16.0492C4.2924 16.0492 4.39279 16.0074 4.46583 15.9347C4.53849 15.8621 4.5799 15.7613 4.5799 15.6586C4.5799 15.5558 4.53849 15.4551 4.46583 15.3824Z" fill="#FF7F8E"/>
</g>
<defs>
<clipPath id="clip0">
</clipPath>
</defs>
</svg>
