<svg width="20" height="20" viewBox="0 0 20 20" fill="none" xmlns="http://www.w3.org/2000/svg">
<g clip-path="url(#clip0)">
<path d="M15.018 5.80884C14.4827 4.95146 13.649 3.93996 12.6706 2.96157C11.6922 1.98318 10.6808 1.14959 9.8233 0.614165C8.79196 -0.0297526 8.11295 -0.16586 7.74903 0.198823C7.36664 0.581206 7.53769 1.31362 8.27209 2.43789L8.35861 2.57064L9.3872 2.71758L8.92059 3.33983L9.09301 3.55193C9.47021 4.01686 9.89333 4.4824 10.3418 4.94093C10.177 4.93421 10.0119 4.92628 9.84786 4.92628C6.74988 4.92628 4.41408 5.98142 4.41408 7.38019V17.546C4.41408 18.9448 6.74988 20.0001 9.84786 20.0001C12.9457 20.0001 15.2815 18.9448 15.2815 17.546V7.99069C15.3363 7.962 15.3885 7.92843 15.4338 7.88311C15.798 7.51889 15.6619 6.84018 15.018 5.80884ZM9.84756 5.62757C10.2682 5.62757 10.693 5.65076 11.1124 5.697C11.1372 5.71973 11.1635 5.74293 11.1888 5.76612C11.2501 5.82212 11.3125 5.87827 11.3756 5.93503C11.4328 5.9863 11.4892 6.03711 11.5474 6.08823C11.6479 6.17627 11.7503 6.26386 11.8541 6.35114C11.9018 6.39112 11.9494 6.42972 11.9975 6.46939C12.0791 6.53668 12.1612 6.60291 12.2442 6.66852C12.2821 6.69873 12.3201 6.72849 12.3582 6.75824C12.6103 6.95462 12.8645 7.14001 13.1151 7.30725C13.1383 7.32266 13.161 7.33746 13.1845 7.35241C13.2826 7.41665 13.3795 7.47723 13.4755 7.53506C13.5116 7.55688 13.5478 7.57855 13.5835 7.5993C13.6659 7.6466 13.7465 7.69009 13.8264 7.73144C13.918 7.7792 14.0063 7.82055 14.0936 7.85946C14.1321 7.87625 14.1714 7.89517 14.2088 7.91027C14.2341 7.9205 14.2611 7.93484 14.2856 7.94384C13.7819 8.44143 12.6495 8.89324 11.1369 9.06246C11.0721 9.06948 11.0078 9.07695 10.9416 9.08321C10.8765 9.08916 10.8102 9.09435 10.7436 9.09939C10.6534 9.10595 10.562 9.1119 10.4694 9.11648C10.4158 9.11922 10.3621 9.12243 10.3075 9.12426C10.1567 9.12975 10.0038 9.13372 9.8471 9.13372C7.05811 9.13372 5.11461 8.20995 5.11461 7.38095C5.11461 6.55179 7.05842 5.62757 9.84756 5.62757ZM5.11491 12.3329C5.3737 12.4204 6.1078 12.6165 6.1078 12.6165C8.44147 13.1637 8.74161 13.2342 8.974 15.1174C9.00131 15.341 8.98239 15.6429 8.73672 15.814C8.54446 15.9478 7.74079 16.292 5.46067 15.1135C5.34074 15.0515 5.22615 14.9877 5.11506 14.9221C5.11491 14.9221 5.11491 12.3329 5.11491 12.3329ZM14.5802 17.5468C14.5802 18.3758 12.6367 19.2995 9.84756 19.2995C7.05857 19.2995 5.11506 18.3758 5.11506 17.5468V17.1177C6.06584 17.974 7.87323 18.5802 9.84756 18.5802C11.8219 18.5802 13.6294 17.9737 14.5802 17.1177V17.5468ZM14.5802 15.794C14.5802 16.6338 12.5928 17.8791 9.84756 17.8791C7.10236 17.8791 5.11506 16.6335 5.11506 15.794V15.7238C5.12269 15.7281 5.13109 15.733 5.13887 15.7368C6.49338 16.4365 7.44065 16.6692 8.10181 16.6692C8.58353 16.6689 8.91296 16.5455 9.13696 16.3895C9.55276 16.1004 9.74212 15.6179 9.66949 15.0318C9.38095 12.6901 8.57117 12.4836 6.24451 11.9377C6.24451 11.9377 5.4123 11.6976 5.11506 11.5888V10.3576C6.03181 11.0935 7.76779 11.5689 9.84756 11.5689C11.9275 11.5689 13.6635 11.0935 14.5802 10.3576V15.794ZM14.5802 9.11495C14.5802 9.94411 12.6367 10.8679 9.84756 10.8679C7.05857 10.8679 5.11506 9.94411 5.11506 9.11495V8.62316C5.13459 8.63903 5.15947 8.65261 5.17991 8.66802C5.25987 8.72906 5.34532 8.78795 5.43641 8.84517C5.47364 8.86822 5.51011 8.89141 5.54902 8.91414C5.66224 8.97976 5.78172 9.04278 5.90943 9.10244C5.92622 9.11007 5.94087 9.11892 5.95811 9.12685C6.10352 9.19323 6.25962 9.25426 6.42228 9.3124C6.46775 9.32888 6.51582 9.34352 6.56281 9.35939C6.68824 9.40105 6.81794 9.44026 6.95221 9.47719C7.00593 9.49184 7.05857 9.50664 7.1135 9.52022C7.28485 9.5634 7.46125 9.60338 7.64496 9.63802C7.65839 9.64046 7.6709 9.64397 7.68463 9.64641C7.88117 9.68288 8.0864 9.71279 8.29529 9.73903C8.35556 9.74666 8.4172 9.75261 8.47855 9.75932C8.63769 9.77657 8.79959 9.79091 8.96438 9.8022C9.03 9.80663 9.09485 9.81166 9.16107 9.81471C9.38583 9.82631 9.61364 9.8344 9.84741 9.8344C10.0719 9.8344 10.2913 9.82662 10.5083 9.81548C10.5752 9.81197 10.6415 9.80846 10.7074 9.80388C10.8806 9.79198 11.0513 9.77718 11.2186 9.75856C11.3325 9.74635 11.4426 9.73094 11.553 9.71523C11.6444 9.70226 11.7357 9.68883 11.8246 9.67372C11.9414 9.6545 12.0556 9.6339 12.1678 9.61101C12.1857 9.6075 12.2029 9.60292 12.2207 9.59957C12.4798 9.54509 12.7249 9.48207 12.9577 9.41127C12.9686 9.40807 12.9794 9.40471 12.9899 9.40151C13.3566 9.28753 13.6862 9.15432 13.9753 9.0028C13.9869 8.99685 13.9985 8.9909 14.0098 8.98494C14.2212 8.87218 14.4179 8.75332 14.5802 8.62286V9.11495ZM14.9321 7.37835L14.8767 7.37515C14.3887 7.34677 13.1264 6.62427 11.5068 5.10603L11.423 5.02714H11.4215C11.2858 4.89805 11.1481 4.76484 11.0075 4.62431C10.5781 4.19478 10.1767 3.75731 9.81078 3.32091L10.6584 2.1907L8.7738 1.92153C8.26584 1.11343 8.24722 0.782927 8.25394 0.699004C8.62655 0.634917 10.1726 1.45523 12.175 3.45686C14.178 5.4611 15.0036 7.01581 14.9321 7.37835Z" fill="#FF7F8E"/>
<path d="M8.09618 6.00553L8.44393 6.61405L5.99031 8.01633L5.64256 7.40781L8.09618 6.00553ZM10.5672 6.60184L7.41182 8.70512L7.02303 8.12177L10.1784 6.0185L10.5672 6.60184ZM11.986 6.94151L9.18139 9.04493L8.76116 8.48432L11.5657 6.3809L11.986 6.94151ZM13.0464 7.63593L11.2937 9.03822L10.8554 8.49027L12.6082 7.08799L13.0464 7.63593Z" fill="#FF7F8E"/>
</g>
<defs>
<clipPath id="clip0">
</clipPath>
</defs>
</svg>
