<svg width="20" height="20" viewBox="0 0 20 20" fill="none" xmlns="http://www.w3.org/2000/svg">
<g clip-path="url(#clip0)">
<path d="M19.9927 12.2116C19.9319 11.7097 19.5055 11.3325 19 11.3334H18.5467C18.6253 11.1198 18.6658 10.8942 18.6666 10.6667C18.6649 9.6783 17.9419 8.8392 16.9646 8.69139C16.9874 8.57338 16.9992 8.45354 16.9999 8.33335C16.9982 7.34496 16.2752 6.50586 15.2979 6.35805C15.3207 6.24004 15.3326 6.1202 15.3333 6.00001C15.332 5.05533 14.6708 4.23998 13.7468 4.04354C14.583 2.90058 14.3415 1.35496 14.3287 1.27868C14.302 1.1179 14.1629 1.00005 13.9999 1.00005C12.9002 1.01227 11.8406 1.41512 11.0104 2.13656C10.6837 1.28551 10.2041 0.467042 9.50484 0.047592C9.39917 -0.0155715 9.26738 -0.0155715 9.16175 0.047592C7.65462 0.951804 7.16454 3.25682 7.039 4.03612C6.45369 3.92323 5.84854 4.07803 5.38932 4.45818C4.93011 4.83834 4.66503 5.40392 4.66663 6.00001C4.66738 6.12016 4.67921 6.24 4.70202 6.35801C3.72473 6.50578 3.00169 7.34492 3.00001 8.33335C3.00075 8.4535 3.01258 8.57335 3.0354 8.69135C2.0581 8.83912 1.33506 9.67826 1.33338 10.6666C1.33416 10.8941 1.37475 11.1198 1.45326 11.3333H1.0001C0.494558 11.3325 0.0681948 11.7096 0.00737498 12.2115C-0.0534448 12.7134 0.270498 13.1815 0.761626 13.3014L3.18969 19.3717C3.34059 19.752 3.70891 20.0013 4.11808 19.9999H15.882C16.2913 20.0012 16.6596 19.7519 16.8105 19.3713L19.2384 13.3014C19.7296 13.1816 20.0535 12.7134 19.9927 12.2116ZM16.5477 9.34705C16.5522 9.34666 16.5563 9.34467 16.5608 9.34408C16.5963 9.34123 16.6304 9.33338 16.6666 9.33338C17.4027 9.33416 17.9991 9.93064 17.9999 10.6667C17.9995 10.9015 17.9357 11.1318 17.8154 11.3334H15.5179C15.3975 11.1318 15.3337 10.9015 15.3333 10.6667C15.3337 10.4804 15.3735 10.2963 15.4501 10.1264L15.4529 10.1218C15.4589 10.1084 15.4671 10.0964 15.4735 10.0833C15.4938 10.0408 15.5163 9.99935 15.5409 9.95923C15.5635 9.92345 15.5891 9.89001 15.6149 9.85681C15.6313 9.83556 15.6484 9.81501 15.666 9.79482C15.8917 9.53814 16.2073 9.37783 16.5477 9.34705ZM14.881 7.01375C14.8855 7.01336 14.8896 7.01137 14.8941 7.01078C14.9296 7.00793 14.9637 7.00008 14.9999 7.00008C15.736 7.00086 16.3325 7.59734 16.3333 8.33339C16.3329 8.4594 16.3143 8.58467 16.2779 8.7053C15.7546 8.80979 15.2947 9.11869 14.9999 9.56349C14.7052 9.11869 14.2453 8.80979 13.722 8.7053C13.6856 8.58467 13.6669 8.4594 13.6666 8.33339C13.667 8.14706 13.7068 7.96296 13.7834 7.79308L13.7862 7.78847C13.7923 7.77507 13.8004 7.76308 13.8068 7.74999C13.8271 7.70745 13.8496 7.66605 13.8743 7.62593C13.8969 7.59015 13.9224 7.55671 13.9482 7.52351C13.9646 7.50226 13.9818 7.48171 13.9994 7.46152C14.2251 7.2048 14.5406 7.04453 14.881 7.01375ZM7.05544 8.7053C7.019 8.58467 7.00032 8.4594 7.00005 8.33339C7.00044 8.14706 7.04025 7.96296 7.11681 7.79308L7.11966 7.78847C7.12568 7.77507 7.1338 7.76308 7.14025 7.74999C7.16052 7.70745 7.18302 7.66605 7.20767 7.62593C7.23028 7.59015 7.25583 7.55671 7.28161 7.52351C7.29802 7.50226 7.31517 7.48171 7.33278 7.46152C7.55841 7.20484 7.87399 7.04453 8.21438 7.01375C8.21891 7.01336 8.22297 7.01137 8.22746 7.01078C8.26297 7.00793 8.29707 7.00008 8.33332 7.00008C8.36969 7.00008 8.40387 7.00797 8.43949 7.01082C8.44395 7.0114 8.44797 7.01336 8.45246 7.01375C8.79254 7.04465 9.10785 7.20472 9.33351 7.46101C9.35163 7.48175 9.36925 7.50285 9.38605 7.52468C9.41128 7.55718 9.43628 7.58992 9.45847 7.62488C9.49101 7.67605 9.51999 7.72941 9.54523 7.78456L9.54733 7.78847L9.54761 7.7889C9.62554 7.95987 9.66612 8.1455 9.66663 8.33339C9.66632 8.4594 9.64769 8.58467 9.61124 8.7053C9.088 8.80979 8.62805 9.11869 8.33332 9.56349C8.03864 9.11873 7.57868 8.80983 7.05544 8.7053ZM8.00004 10.6667C7.99965 10.9015 7.93586 11.1318 7.81547 11.3334H5.51795C5.39756 11.1318 5.33378 10.9015 5.33339 10.6667C5.33378 10.4804 5.37358 10.2963 5.45014 10.1264L5.45299 10.1218C5.45901 10.1084 5.46713 10.0964 5.47358 10.0833C5.49385 10.0408 5.51635 9.99935 5.541 9.95923C5.56362 9.92345 5.58916 9.89001 5.61495 9.85681C5.63135 9.83556 5.6485 9.81501 5.66612 9.79482C5.89178 9.53814 6.20732 9.37783 6.54771 9.34705C6.55224 9.34666 6.5563 9.34467 6.5608 9.34408C6.5963 9.34123 6.63041 9.33338 6.66666 9.33338C6.70302 9.33338 6.7372 9.34127 6.77283 9.34412C6.77728 9.34471 6.7813 9.34666 6.7858 9.34705C7.12587 9.37795 7.44118 9.53802 7.66684 9.79431C7.68497 9.81505 7.70258 9.83615 7.71938 9.85798C7.74462 9.89048 7.76962 9.92322 7.7918 9.95818C7.82434 10.0093 7.85333 10.0627 7.87856 10.1179L7.88067 10.1218L7.88094 10.1222C7.95895 10.2932 7.99954 10.4788 8.00004 10.6667ZM8.78343 10.1264L8.78629 10.1218C8.7923 10.1084 8.80043 10.0965 8.80687 10.0833C8.82715 10.0408 8.84965 9.99939 8.87429 9.95927C8.89691 9.92349 8.92246 9.89005 8.94824 9.85685C8.96464 9.8356 8.98179 9.81505 8.99941 9.79486C9.22503 9.53818 9.54062 9.37787 9.881 9.34709C9.88554 9.3467 9.8896 9.34471 9.89409 9.34412C9.9296 9.34127 9.9637 9.33342 9.99995 9.33342C10.0363 9.33342 10.0705 9.34131 10.1061 9.34416C10.1106 9.34475 10.1146 9.3467 10.1191 9.34709C10.4592 9.37799 10.7745 9.53806 11.0001 9.79435C11.0183 9.81509 11.0359 9.83619 11.0527 9.85802C11.0779 9.89052 11.1029 9.92326 11.1251 9.95822C11.1576 10.0094 11.1866 10.0627 11.2119 10.1179L11.214 10.1218L11.2142 10.1222C11.2922 10.2932 11.3327 10.4788 11.3333 10.6667C11.3329 10.9015 11.2691 11.1318 11.1487 11.3334H8.85117C8.73078 11.1318 8.66699 10.9015 8.6666 10.6667C8.66711 10.4804 8.70687 10.2963 8.78343 10.1264ZM10.3887 8.7053C10.3523 8.58467 10.3336 8.4594 10.3333 8.33339C10.3337 8.14706 10.3735 7.96296 10.4501 7.79308L10.453 7.78847C10.459 7.77507 10.4671 7.76308 10.4735 7.74999C10.4938 7.70745 10.5163 7.66605 10.541 7.62593C10.5636 7.59015 10.5891 7.55671 10.6149 7.52351C10.6313 7.50226 10.6485 7.48171 10.6661 7.46152C10.8917 7.20484 11.2073 7.04453 11.5477 7.01375C11.5522 7.01336 11.5563 7.01137 11.5608 7.01078C11.5963 7.00793 11.6304 7.00008 11.6666 7.00008C11.703 7.00008 11.7372 7.00797 11.7728 7.01082C11.7772 7.0114 11.7813 7.01336 11.7858 7.01375C12.1258 7.04465 12.4411 7.20472 12.6668 7.46101C12.6849 7.48175 12.7025 7.50285 12.7193 7.52468C12.7446 7.55718 12.7696 7.58992 12.7918 7.62488C12.8243 7.67605 12.8533 7.72941 12.8785 7.78456L12.8806 7.78847L12.8809 7.7889C12.9588 7.95987 12.9994 8.1455 12.9999 8.33343C12.9996 8.45944 12.981 8.58471 12.9445 8.70534C12.4213 8.80983 11.9613 9.11873 11.6666 9.56353C11.372 9.11873 10.912 8.80983 10.3887 8.7053ZM12.1168 10.1264L12.1196 10.1218C12.1256 10.1084 12.1338 10.0965 12.1402 10.0833C12.1605 10.0408 12.183 9.99939 12.2076 9.95927C12.2302 9.92349 12.2558 9.89005 12.2816 9.85685C12.298 9.8356 12.3151 9.81505 12.3327 9.79486C12.5584 9.53818 12.8739 9.37787 13.2143 9.34709C13.2189 9.3467 13.2229 9.34471 13.2274 9.34412C13.2629 9.34127 13.297 9.33342 13.3333 9.33342C13.3696 9.33342 13.4038 9.34131 13.4395 9.34416C13.4439 9.34475 13.4479 9.3467 13.4524 9.34709C13.7925 9.37799 14.1078 9.53806 14.3335 9.79435C14.3516 9.81509 14.3692 9.83619 14.386 9.85802C14.4112 9.89052 14.4362 9.92326 14.4584 9.95822C14.491 10.0094 14.5199 10.0627 14.5452 10.1179L14.5473 10.1218L14.5476 10.1222C14.6255 10.2932 14.6661 10.4788 14.6666 10.6667C14.6662 10.9015 14.6024 11.1318 14.482 11.3334H12.1845C12.0641 11.1318 12.0003 10.9015 11.9999 10.6667C12.0004 10.4804 12.0402 10.2963 12.1168 10.1264ZM14.173 4.96248C14.4862 5.21572 14.6677 5.59731 14.6666 6.00008C14.6663 6.1261 14.6477 6.25137 14.6112 6.372C14.088 6.47649 13.628 6.78539 13.3333 7.23019C13.0386 6.78539 12.5786 6.47649 12.0554 6.372C12.019 6.25137 12.0003 6.1261 12 6.00008C11.9997 5.71708 12.0913 5.44165 12.2609 5.21517C12.2763 5.19427 12.2938 5.17529 12.3104 5.15533C12.3559 5.09997 12.4058 5.04833 12.4597 5.00099C12.4821 4.98134 12.5049 4.9622 12.5286 4.94404C12.5857 4.90091 12.6461 4.86248 12.7093 4.82904C12.7326 4.81658 12.7548 4.80236 12.7789 4.79123C12.8672 4.74966 12.9598 4.71806 13.055 4.69697C13.4486 4.61158 13.8598 4.7092 14.173 4.96248ZM13.6986 1.67883C13.7269 2.2257 13.6754 3.41026 12.8 4.06682L12.7876 4.07658C12.7845 4.07744 12.7819 4.07908 12.7788 4.07994C12.6734 4.11068 12.5706 4.15018 12.4716 4.19795C12.4612 4.20295 12.4509 4.20779 12.4406 4.21295C12.3444 4.26111 12.2524 4.31697 12.1652 4.37994C12.1578 4.38529 12.1503 4.39025 12.143 4.39568C12.3115 3.79534 12.5358 3.34815 12.6666 3.33335C12.8507 3.33335 12.9999 3.18413 12.9999 3.00003C12.9999 2.81593 12.8507 2.66671 12.6666 2.66671C12.0891 2.66671 11.7388 3.39085 11.5365 4.07279C11.4603 3.64913 11.3615 3.22983 11.2404 2.81675C11.9094 2.17308 12.7749 1.77238 13.6986 1.67883ZM11.0627 5.2045L11.0631 5.2049L11.0633 5.20513C11.0919 5.24337 11.1158 5.28001 11.1386 5.31638C11.2649 5.52216 11.3322 5.75864 11.3333 6.00005C11.333 6.12606 11.3144 6.25133 11.2779 6.37196C10.7547 6.47645 10.2948 6.78535 10 7.23015C9.7053 6.78535 9.24535 6.47645 8.72211 6.37196C8.68566 6.25133 8.66703 6.12606 8.66672 6.00008C8.66844 5.85571 8.6939 5.71259 8.74211 5.57649L8.745 5.57102C8.85039 5.26486 9.06328 5.00732 9.34421 4.84626C9.37386 4.82935 9.4032 4.81201 9.43421 4.79736C9.46827 4.78107 9.50347 4.76716 9.53894 4.7538C9.58265 4.73763 9.62718 4.7238 9.67233 4.71232C9.70147 4.70478 9.73034 4.69654 9.76011 4.69099C9.93557 4.6556 10.1166 4.65896 10.2906 4.7008C10.3155 4.70634 10.3384 4.71627 10.3626 4.72318C10.433 4.74248 10.5017 4.76763 10.5678 4.79845C10.5888 4.80845 10.6085 4.8206 10.6289 4.83162C10.6995 4.86962 10.7665 4.91396 10.8291 4.96412C10.8396 4.97255 10.85 4.98111 10.8602 4.98982C10.9352 5.05392 11.0031 5.12587 11.0627 5.2045ZM9.3314 0.735477C9.90128 1.17583 10.2859 1.9973 10.5413 2.80495C10.5425 2.80952 10.5422 2.81425 10.5436 2.81882C10.6852 3.27366 10.798 3.73698 10.8813 4.206C10.8726 4.20166 10.8632 4.19873 10.8544 4.19451C10.807 4.17201 10.7588 4.15139 10.7096 4.13256C10.6874 4.124 10.6651 4.11568 10.6425 4.10795C10.5983 4.09291 10.5534 4.07998 10.508 4.06803C10.4828 4.06135 10.4578 4.0542 10.4323 4.04854C10.3848 4.03803 10.3364 4.03033 10.2877 4.02326C10.2646 4.01994 10.242 4.01526 10.2187 4.01272C10.0681 3.99522 9.91593 3.996 9.7655 4.01514C9.74601 4.01748 9.72698 4.02112 9.70761 4.02401C9.69394 4.026 9.68022 4.02799 9.66663 4.03029V3.00011C9.66663 2.81601 9.51741 2.66679 9.33331 2.66679C9.14921 2.66679 9 2.81601 9 3.00011V4.27068C8.73269 4.42553 8.50457 4.63978 8.33332 4.89689C8.20699 4.70763 8.0495 4.54119 7.86758 4.40455L7.86739 4.40439C7.80758 4.35924 7.74528 4.31744 7.68079 4.27928L7.67712 4.27682C7.74563 3.79991 8.11836 1.63391 9.3314 0.735477ZM6.66669 4.66674C6.8381 4.66709 7.00779 4.70072 7.16634 4.7658L7.16669 4.76603C7.51841 4.91044 7.79161 5.19829 7.9175 5.55704L7.92012 5.562C7.97145 5.70243 7.99848 5.85059 8.00004 6.00012C7.99973 6.12614 7.9811 6.25141 7.94465 6.37203C7.42142 6.47653 6.96146 6.78543 6.66673 7.23023C6.37201 6.78543 5.91205 6.47653 5.38881 6.37203C5.35237 6.25141 5.3337 6.12614 5.33342 6.00012C5.33417 5.26404 5.93065 4.66756 6.66669 4.66674ZM5.00007 7.00008C5.03643 7.00008 5.07061 7.00797 5.10624 7.01082C5.11069 7.0114 5.11472 7.01336 5.11921 7.01375C5.45928 7.04465 5.77459 7.20472 6.00025 7.46101C6.01838 7.48175 6.036 7.50285 6.05279 7.52468C6.07803 7.55718 6.10303 7.58992 6.12522 7.62488C6.15775 7.67605 6.18674 7.72941 6.21197 7.78456L6.21408 7.78847L6.21435 7.7889C6.29228 7.95987 6.33287 8.1455 6.33338 8.33339C6.33306 8.4594 6.31443 8.58467 6.27799 8.7053C5.75475 8.80979 5.29479 9.11869 5.00007 9.56349C4.70534 9.11869 4.24539 8.80979 3.72215 8.7053C3.6857 8.58467 3.66703 8.4594 3.66676 8.33339C3.66754 7.59734 4.26402 7.00086 5.00007 7.00008ZM3.3334 9.33338C3.36977 9.33338 3.40395 9.34127 3.43957 9.34412C3.44403 9.34471 3.44805 9.34666 3.45254 9.34705C3.79262 9.37795 4.10793 9.53802 4.33359 9.79431C4.35171 9.81505 4.36933 9.83615 4.38613 9.85798C4.41136 9.89048 4.43636 9.92322 4.45855 9.95818C4.49109 10.0093 4.52007 10.0627 4.54531 10.1179L4.54742 10.1218L4.54769 10.1222C4.62562 10.2932 4.6662 10.4788 4.66671 10.6667C4.66632 10.9015 4.60253 11.1318 4.48214 11.3334H2.18466C2.06427 11.1318 2.00048 10.9015 2.00009 10.6667C2.00087 9.93068 2.59735 9.33416 3.3334 9.33338ZM17.9743 14.6667H9.33335C9.14925 14.6667 9.00003 14.8159 9.00003 15C9.00003 15.1841 9.14925 15.3333 9.33335 15.3333H17.7076L16.9076 17.3333H15.6666C15.4825 17.3333 15.3333 17.4825 15.3333 17.6666C15.3333 17.8507 15.4825 17.9999 15.6666 17.9999H16.641L16.1915 19.1236C16.1412 19.2505 16.0185 19.3336 15.882 19.3333H4.11808C3.98176 19.3337 3.85902 19.2506 3.80867 19.124L3.35907 18H10.6667C10.8508 18 11 17.8507 11 17.6667C11 17.4826 10.8507 17.3334 10.6667 17.3334H3.09239L2.2924 15.3334H4.33339C4.51749 15.3334 4.66671 15.1842 4.66671 15.0001C4.66671 14.816 4.51749 14.6667 4.33339 14.6667H2.02576L1.49244 13.3334H18.5076L17.9743 14.6667ZM19 12.6667H1.0001C0.816001 12.6667 0.666784 12.5175 0.666784 12.3334C0.666784 12.1493 0.81604 12 1.0001 12H19C19.1841 12 19.3333 12.1493 19.3333 12.3334C19.3333 12.5175 19.1841 12.6667 19 12.6667Z" fill="white"/>
<path d="M12 17.9999H14.3333C14.5174 17.9999 14.6666 17.8506 14.6666 17.6665C14.6666 17.4824 14.5174 17.3332 14.3333 17.3332H12C11.8159 17.3332 11.6667 17.4825 11.6667 17.6665C11.6666 17.8506 11.8159 17.9999 12 17.9999Z" fill="white"/>
<path d="M5.66668 15.3332H7.99998C8.18408 15.3332 8.3333 15.184 8.3333 14.9999C8.3333 14.8158 8.18408 14.6666 7.99998 14.6666H5.66668C5.48258 14.6666 5.33336 14.8158 5.33336 14.9999C5.33336 15.184 5.48261 15.3332 5.66668 15.3332Z" fill="white"/>
</g>
<defs>
<clipPath id="clip0">
</clipPath>
</defs>
</svg>
