<svg width="20" height="20" viewBox="0 0 20 20" fill="none" xmlns="http://www.w3.org/2000/svg">
<g clip-path="url(#clip0)">
<path d="M15.7818 2.11507C15.1322 2.031 14.4833 2.08104 13.848 2.264C12.9366 1.06161 11.5167 0.351624 9.9998 0.351624C8.48293 0.351624 7.06295 1.06207 6.15155 2.264C5.51633 2.08165 4.86738 2.0313 4.21781 2.11507C1.83364 2.42406 0.0204477 4.46445 0.000153598 6.86129C-0.0187672 9.10371 1.48544 11.0478 3.65813 11.5886C4.17402 11.7168 4.55457 12.1585 4.60493 12.6878L4.89393 15.7234H4.89362L5.05888 17.4575C5.12907 18.1974 6.06565 18.7054 6.45947 18.8874C6.51578 18.9134 6.56094 18.9326 6.59085 18.9451C7.67437 19.4012 8.83709 19.6292 9.9998 19.6292C11.1622 19.6292 12.3239 19.4012 13.4057 18.9457C13.6477 18.8458 14.8591 18.303 14.9398 17.4575L15.1051 15.7234H15.1046L15.3936 12.6878C15.444 12.1585 15.8247 11.7168 16.3406 11.5886C18.5143 11.0475 20.0188 9.10371 19.9999 6.86129C19.979 4.46445 18.166 2.42406 15.7818 2.11507ZM13.1405 18.3096C11.1442 19.1502 8.85463 19.1506 6.85696 18.3088C6.42697 18.1295 5.77634 17.7143 5.74567 17.3922L5.70295 16.9447C7.06677 17.604 8.50887 17.9379 9.99949 17.9379C11.4901 17.9379 12.9322 17.604 14.296 16.9447L14.2533 17.3922C14.2233 17.7143 13.5722 18.1298 13.1405 18.3096ZM16.1748 10.9189C15.3759 11.1179 14.7863 11.8027 14.708 12.6222L14.3742 16.1264C12.9936 16.8681 11.5232 17.2477 9.9998 17.2477C8.47637 17.2477 7.00604 16.8681 5.62528 16.1264L5.29157 12.6222C5.21329 11.8024 4.6237 11.1179 3.82475 10.9189C1.96258 10.4555 0.673368 8.78923 0.689542 6.86709C0.70709 4.81266 2.26195 3.06416 4.30647 2.79927C4.48026 2.77684 4.65437 2.76509 4.82816 2.76509C5.28089 2.76509 5.73194 2.84169 6.17398 2.99382L6.42361 3.07973L6.57193 2.86107C7.34402 1.72216 8.62545 1.04147 9.9998 1.04147C11.3743 1.04147 12.6557 1.72216 13.4278 2.86137L13.576 3.08003L13.8258 2.99413C14.4375 2.78371 15.0657 2.71825 15.6933 2.79958C17.7373 3.06416 19.2925 4.81281 19.3102 6.86724C19.3262 8.78953 18.037 10.4558 16.1748 10.9189Z" fill="#FF7F8E"/>
<path d="M6.50876 12.0785C6.31985 12.1019 6.18573 12.2745 6.20953 12.4634L6.55438 15.222C6.57605 15.3964 6.72467 15.524 6.89602 15.524C6.91052 15.524 6.92471 15.5229 6.93905 15.5212C7.12811 15.4979 7.26223 15.3253 7.23843 15.1364L6.89358 12.3778C6.86978 12.1885 6.69568 12.0567 6.50876 12.0785Z" fill="#FF7F8E"/>
<path d="M8.96526 12.7655C8.77498 12.7655 8.62041 12.9196 8.62041 13.1103V15.869C8.62041 16.0596 8.77498 16.2137 8.96526 16.2137C9.15569 16.2137 9.3101 16.0596 9.3101 15.869V13.1103C9.3101 12.9196 9.15569 12.7655 8.96526 12.7655Z" fill="#FF7F8E"/>
<path d="M13.4908 12.0785C13.3036 12.0567 13.1295 12.1885 13.106 12.3778L12.7612 15.1364C12.7377 15.3254 12.8715 15.4979 13.0604 15.5212C13.0749 15.5229 13.0894 15.524 13.1036 15.524C13.2749 15.524 13.4235 15.3964 13.4452 15.222L13.7901 12.4634C13.8139 12.2745 13.6797 12.1019 13.4908 12.0785Z" fill="#FF7F8E"/>
<path d="M11.0342 12.7655C10.8439 12.7655 10.6893 12.9196 10.6893 13.1103V15.869C10.6893 16.0596 10.8439 16.2137 11.0342 16.2137C11.2246 16.2137 11.379 16.0596 11.379 15.869V13.1103C11.379 12.9196 11.2246 12.7655 11.0342 12.7655Z" fill="#FF7F8E"/>
<path d="M5.52093 3.79993C2.6422 3.77552 2.0819 6.11622 2.07702 6.14002C2.03597 6.32587 2.15392 6.50959 2.33977 6.55033C2.36465 6.55582 2.38982 6.55826 2.41393 6.55826C2.57232 6.55826 2.71529 6.44855 2.75054 6.28727C2.75466 6.26896 3.16817 4.44965 5.5136 4.48933C5.69808 4.47651 5.86013 4.33826 5.86227 4.14829C5.86425 3.95817 5.7112 3.80207 5.52093 3.79993Z" fill="#FF7F8E"/>
<path d="M8.06499 2.49242C7.91423 2.60884 7.88631 2.82551 8.00288 2.97612C8.11915 3.12688 8.33598 3.15404 8.48659 3.03853C8.50078 3.02708 9.94243 1.94127 11.5266 3.04784C11.5866 3.08995 11.6557 3.11024 11.7239 3.11024C11.8328 3.11024 11.9397 3.05882 12.0069 2.96269C12.1159 2.80675 12.078 2.5916 11.9218 2.48265C10.325 1.36784 8.70082 2.002 8.06499 2.49242Z" fill="#FF7F8E"/>
</g>
<defs>
<clipPath id="clip0">
</clipPath>
</defs>
</svg>
