<svg width="20" height="20" viewBox="0 0 20 20" fill="none" xmlns="http://www.w3.org/2000/svg">
<g clip-path="url(#clip0)">
<path d="M19.2393 0.765317C18.5402 0.0662364 17.4957 -0.16403 16.2981 0.116743C15.2343 0.366149 14.1484 1.00359 13.2404 1.91161C12.6134 2.5385 12.1155 3.25024 11.7853 3.98096L9.15041 3.82874C8.87108 3.81237 8.59808 3.9167 8.40051 4.11432L7.36379 5.15108C7.24937 5.26549 7.24937 5.45099 7.36379 5.56536C7.42097 5.62255 7.49597 5.65118 7.57093 5.65118C7.64589 5.65118 7.72088 5.62259 7.77807 5.56536L8.8148 4.5286C8.89432 4.44907 9.00424 4.4072 9.11658 4.41368L11.5619 4.55497C11.5167 4.6932 11.4779 4.83148 11.4455 4.96937C11.3491 5.38096 11.3129 5.77446 11.3354 6.14203C10.6958 6.84314 10.7149 7.93404 11.3928 8.61183C12.0907 9.30966 13.2587 9.32595 13.9666 8.56633C13.9676 8.56535 13.9685 8.56434 13.9694 8.56336C14.5973 7.88647 14.5943 6.85318 14.0149 6.18124C13.7309 5.85176 13.3457 5.6406 12.9255 5.57767C12.9375 5.49666 12.9535 5.41318 12.9735 5.32756C13.0261 5.10339 13.1037 4.87628 13.2042 4.64973L14.5386 4.72684C14.9369 4.74988 15.2547 5.06765 15.2777 5.46595C15.442 8.31067 15.4263 8.03775 15.591 10.888C15.5974 11.0002 15.5556 11.1102 15.476 11.1898L7.42249 19.2433C7.19477 19.471 6.82626 19.471 6.59854 19.2433L0.761256 13.4061C0.534115 13.1789 0.534115 12.8093 0.761256 12.5821L6.78162 6.56174C6.89603 6.44733 6.89603 6.26183 6.78162 6.14746C6.66721 6.03305 6.4817 6.03305 6.36733 6.14746L0.346972 12.1678C-0.108638 12.6234 -0.108638 13.3647 0.346972 13.8204L6.18421 19.6576C6.64092 20.1143 7.38007 20.1143 7.83678 19.6576L15.8904 11.6041C16.088 11.4065 16.192 11.1331 16.1759 10.8542L16.0237 8.21954C16.7578 7.88779 17.4694 7.38781 18.093 6.76423C19.001 5.85618 19.6384 4.77027 19.8878 3.70652C20.1686 2.50882 19.9383 1.46428 19.2393 0.765317ZM11.8071 8.19751C11.4812 7.87162 11.3817 7.40371 11.5087 6.99118C11.6367 7.33926 11.8326 7.64905 12.0941 7.91049C12.3528 8.16919 12.6652 8.36641 13.0171 8.49563C12.613 8.62121 12.1429 8.53336 11.8071 8.19751ZM13.5712 6.56385C13.7041 6.71802 13.7911 6.89907 13.8323 7.0884C13.5711 7.05133 13.3572 6.95407 13.2038 6.80072C13.0488 6.64572 12.952 6.43163 12.9154 6.17164C13.1675 6.22683 13.3975 6.36245 13.5712 6.56385ZM19.3174 3.57277C19.0926 4.53172 18.5106 5.51802 17.6787 6.34995C17.1632 6.86536 16.5849 7.28797 15.9872 7.588L15.9621 7.15344C16.4658 6.8797 16.9587 6.5076 17.3975 6.06883C17.7349 5.73145 18.0297 5.36728 18.2736 4.98644C18.3608 4.85019 18.3211 4.66899 18.1849 4.58172C18.0486 4.49446 17.8674 4.53419 17.7802 4.67043C17.559 5.01581 17.2909 5.34693 16.9832 5.65454C16.6548 5.98293 16.2945 6.26948 15.9243 6.49827L15.8627 5.43228C15.8225 4.73691 15.2678 4.1822 14.5724 4.14201L13.5059 4.08041C13.7329 3.71237 14.0175 3.3541 14.3502 3.02142C15.0542 2.3173 15.8733 1.82841 16.6564 1.64482C17.155 1.52791 17.7676 1.51311 18.1296 1.87513C18.4303 2.17586 18.5121 2.69905 18.3599 3.3484C18.3478 3.39992 18.3341 3.45246 18.3193 3.50457C18.275 3.66019 18.3652 3.82225 18.5209 3.86659C18.6763 3.91081 18.8385 3.82069 18.8828 3.66507C18.9002 3.6041 18.9162 3.54246 18.9303 3.48207C19.1306 2.62807 18.9933 1.91028 18.5439 1.46088C18.0276 0.944413 17.2391 0.906445 16.5227 1.07441C15.6348 1.28257 14.7161 1.82692 13.9359 2.60713C13.2339 3.30911 12.6311 4.22162 12.4032 5.19393C12.2361 5.9066 12.2703 6.69584 12.7896 7.21512C13.0482 7.4737 13.3982 7.63054 13.8144 7.67694C13.7768 7.8103 13.7158 7.93822 13.6314 8.054C13.1823 7.98017 12.8051 7.79295 12.5084 7.49632C11.9581 6.94599 11.7832 6.09609 12.016 5.10315C12.2607 4.05951 12.9012 3.07954 13.6548 2.32597C14.4866 1.49408 15.4729 0.912109 16.4319 0.687272C17.4248 0.454506 18.2747 0.629305 18.8251 1.17972C19.3753 1.72994 19.5502 2.57983 19.3174 3.57277Z" fill="#FF7F8E"/>
<path d="M7.44276 9.29344C6.87614 9.29344 6.41514 9.75445 6.41514 10.3211C6.41514 10.8877 6.87614 11.3487 7.44276 11.3487C8.00938 11.3487 8.47038 10.8877 8.47038 10.3211C8.47038 9.75445 8.00942 9.29344 7.44276 9.29344ZM7.44276 10.7628C7.19921 10.7628 7.00106 10.5647 7.00106 10.3211C7.00106 10.0776 7.19921 9.87936 7.44276 9.87936C7.68631 9.87936 7.88446 10.0775 7.88446 10.3211C7.88446 10.5647 7.68634 10.7628 7.44276 10.7628Z" fill="#FF7F8E"/>
<path d="M9.47098 10.3211C9.47098 9.20278 8.56117 8.29292 7.4428 8.29292C6.32444 8.29292 5.41462 9.20274 5.41462 10.3211C5.41462 10.8848 5.64575 11.3954 6.01816 11.7634H4.10251C3.66499 11.7634 3.30906 12.1193 3.30906 12.5568C3.30906 12.9943 3.66503 13.3503 4.10251 13.3503H6.01816C5.64571 13.7182 5.41462 14.2289 5.41462 14.7925C5.41462 15.9109 6.32444 16.8207 7.4428 16.8207C8.56117 16.8207 9.47098 15.9109 9.47098 14.7925C9.47098 14.2289 9.23986 13.7182 8.86745 13.3503H10.7831C11.2206 13.3503 11.5765 12.9943 11.5765 12.5568C11.5765 12.1193 11.2206 11.7634 10.7831 11.7634H10.4977C10.3359 11.7634 10.2048 11.8945 10.2048 12.0563C10.2048 12.2181 10.3359 12.3493 10.4977 12.3493H10.7831C10.8975 12.3493 10.9906 12.4424 10.9906 12.5568C10.9906 12.6713 10.8975 12.7644 10.7831 12.7644H4.10255C3.9881 12.7644 3.89502 12.6712 3.89502 12.5568C3.89502 12.4424 3.98814 12.3493 4.10255 12.3493H9.13056C9.29236 12.3493 9.42352 12.2181 9.42352 12.0563C9.42352 11.8945 9.29236 11.7634 9.13056 11.7634H8.86745C9.23986 11.3954 9.47098 10.8847 9.47098 10.3211ZM8.88506 14.7925C8.88506 15.5878 8.23809 16.2348 7.4428 16.2348C6.64751 16.2348 6.00054 15.5878 6.00054 14.7925C6.00054 13.9972 6.64751 13.3503 7.4428 13.3503C8.23809 13.3503 8.88506 13.9972 8.88506 14.7925ZM6.00054 10.3211C6.00054 9.52585 6.64751 8.87884 7.4428 8.87884C8.23809 8.87884 8.88506 9.52582 8.88506 10.3211C8.88506 11.1164 8.23809 11.7634 7.4428 11.7634C6.64751 11.7634 6.00054 11.1164 6.00054 10.3211Z" fill="#FF7F8E"/>
<path d="M7.44276 15.8202C8.00938 15.8202 8.47038 15.3592 8.47038 14.7925C8.47038 14.2259 8.00938 13.7649 7.44276 13.7649C6.87614 13.7649 6.41514 14.2259 6.41514 14.7925C6.41514 15.3592 6.87614 15.8202 7.44276 15.8202ZM7.44276 14.3508C7.68631 14.3508 7.88446 14.549 7.88446 14.7925C7.88446 15.0361 7.68631 15.2342 7.44276 15.2342C7.19921 15.2342 7.00106 15.0361 7.00106 14.7925C7.00106 14.549 7.19921 14.3508 7.44276 14.3508Z" fill="#FF7F8E"/>
</g>
<defs>
<clipPath id="clip0">
</clipPath>
</defs>
</svg>
