<svg width="20" height="20" viewBox="0 0 20 20" fill="none" xmlns="http://www.w3.org/2000/svg">
<g clip-path="url(#clip0)">
<path d="M16.5442 2.94221C16.3919 3.09496 16.3919 3.34215 16.5442 3.49489C16.6969 3.64717 16.9441 3.64717 17.0969 3.49489C17.2492 3.34215 17.2492 3.09496 17.0969 2.94221C16.9441 2.78993 16.6969 2.78993 16.5442 2.94221Z" fill="#FF7F8E"/>
<path d="M16.5436 0.00488539C14.2432 0.0936918 11.4499 1.18012 9.22684 3.12379C7.80181 2.81144 6.3005 3.24479 5.26397 4.28132C4.80712 4.73802 4.80712 5.48128 5.26397 5.93813L6.5332 7.20736C5.72967 9.52456 5.57631 11.9982 5.55602 13.2604C4.86022 12.7997 4.04463 12.5522 3.19106 12.5522C2.04344 12.5522 0.964793 12.999 0.153328 13.8105C0.000892557 13.9629 0.000892557 14.2102 0.153328 14.3627C0.964793 15.174 2.04344 15.6209 3.19106 15.6209C3.70879 15.6209 4.21233 15.5297 4.68367 15.3553C4.50942 15.8268 4.41817 16.3303 4.41817 16.848C4.41817 17.9955 4.86495 19.0743 5.67626 19.8856C5.75255 19.9619 5.8525 20.0001 5.95245 20.0001C6.05239 20.0001 6.15234 19.9619 6.22863 19.8856C7.03994 19.0743 7.48687 17.9955 7.48687 16.848C7.48687 15.9943 7.23937 15.1787 6.77856 14.4829C8.04107 14.4628 10.5147 14.3096 12.8319 13.506L14.101 14.7751C14.5577 15.2318 15.3009 15.2318 15.7576 14.7751C16.7941 13.7386 17.2275 12.2374 16.9153 10.8126C18.6263 8.85379 19.9456 6.08461 20.0342 3.45445C20.0739 2.2757 19.7928 1.2671 19.2822 0.756688C18.7654 0.239871 17.7417 -0.0411963 16.5436 0.00488539ZM5.81618 4.83369C6.52938 4.1205 7.51159 3.75642 8.49945 3.81044C7.84317 4.48991 7.28668 5.36195 6.84036 6.40978L5.81618 5.38576C5.66405 5.23363 5.66405 4.98582 5.81618 4.83369ZM1.01591 14.0866C1.63328 13.5984 2.3918 13.3333 3.19106 13.3333C3.99031 13.3333 4.74883 13.5984 5.3662 14.0866C4.74883 14.5749 3.99031 14.8398 3.19106 14.8398C2.3918 14.8398 1.63328 14.5748 1.01591 14.0866ZM5.95245 19.0232C5.46416 18.4058 5.19927 17.6473 5.19927 16.848C5.19927 16.0488 5.46416 15.2903 5.95245 14.6729C6.44073 15.2904 6.70577 16.0488 6.70577 16.848C6.70577 17.6473 6.44073 18.4058 5.95245 19.0232ZM15.2054 14.2228C15.0533 14.375 14.8055 14.375 14.6533 14.2228L13.6292 13.1987C14.6771 12.7523 15.5492 12.1959 16.2287 11.5396C16.2827 12.5275 15.9186 13.5097 15.2054 14.2228ZM19.2536 3.4282C19.2172 4.50838 18.9237 5.74709 18.4252 6.93575C17.334 7.20308 16.1431 6.9916 15.1294 6.34356C14.9478 6.22744 14.7063 6.28054 14.59 6.46242C14.4739 6.644 14.527 6.88555 14.7087 7.00182C15.7079 7.6404 16.8758 7.92941 18.0235 7.79894C17.5327 8.75582 16.9203 9.64358 16.1971 10.4457V10.4459C16.0555 10.6031 15.9076 10.7589 15.7576 10.9087C13.598 13.0683 9.3988 13.7151 6.3362 13.7027C6.32308 10.6429 6.96624 6.44548 9.1304 4.28148C9.28146 4.13026 9.4371 3.98271 9.59351 3.84218C10.3961 3.11799 11.2842 2.5052 12.2411 2.01402C12.151 2.81968 12.2661 3.65953 12.5813 4.4449C12.6618 4.6454 12.8894 4.74199 13.0892 4.66188C13.2893 4.58147 13.3865 4.35411 13.3061 4.15391C12.9739 3.32627 12.9039 2.43119 13.1038 1.61271C14.2789 1.11985 15.5042 0.826726 16.5737 0.785374C17.6598 0.743413 18.4392 1.01838 18.73 1.30906C19.0164 1.59547 19.2894 2.36192 19.2536 3.4282Z" fill="#FF7F8E"/>
<path d="M13.4705 5.36348C13.3182 5.51622 13.3182 5.76341 13.4705 5.91615C13.6232 6.06844 13.8704 6.06844 14.0231 5.91615C14.1754 5.76341 14.1754 5.51622 14.0231 5.36348C13.8704 5.2112 13.6232 5.2112 13.4705 5.36348Z" fill="#FF7F8E"/>
</g>
<defs>
<clipPath id="clip0">
</clipPath>
</defs>
</svg>
