<svg width="20" height="20" viewBox="0 0 20 20" fill="none" xmlns="http://www.w3.org/2000/svg">
<path d="M12.7568 8.90746C12.794 8.92012 12.8325 8.92608 12.8697 8.92608C13.0165 8.92608 13.1534 8.83391 13.203 8.68712C13.3131 8.36394 13.6655 8.19045 13.9885 8.29985C14.6791 8.53362 15.4326 8.16298 15.6667 7.47206C15.7294 7.28835 15.6308 7.08815 15.4468 7.02544C15.262 6.96318 15.0627 7.06175 15.0001 7.24577C14.8903 7.56926 14.538 7.74275 14.2145 7.63304C13.5251 7.40035 12.7707 7.77022 12.5363 8.46083C12.4741 8.64455 12.5726 8.84475 12.7568 8.90746Z" fill="#FF7F8E"/>
<path d="M13.5895 6.45491C13.6269 6.46757 13.6652 6.47352 13.7024 6.47352C13.8492 6.47352 13.986 6.38136 14.0356 6.23457C14.0889 6.07786 14.1997 5.95122 14.3483 5.87798C14.4968 5.80489 14.6646 5.79436 14.8213 5.84746C15.5118 6.08122 16.2651 5.71059 16.4995 5.01921C16.562 4.8355 16.4632 4.6353 16.2794 4.57259C16.0954 4.50926 15.8954 4.6089 15.8331 4.79292C15.7234 5.11672 15.3717 5.29036 15.0476 5.1805C14.7125 5.06667 14.3538 5.09001 14.037 5.24657C13.7202 5.40282 13.4831 5.67351 13.3694 6.00828C13.3064 6.19231 13.4053 6.39235 13.5895 6.45491Z" fill="#FF7F8E"/>
<path d="M14.4215 4.00252C14.4591 4.01519 14.4972 4.02114 14.5349 4.02114C14.6817 4.02114 14.8186 3.92882 14.8682 3.78204C14.949 3.54339 15.2099 3.41491 15.4481 3.49593C15.742 3.59557 16.0571 3.57513 16.3354 3.43825C16.6136 3.30093 16.8216 3.0638 16.9215 2.76977C16.9841 2.58605 16.8855 2.38586 16.7015 2.3233C16.5167 2.26028 16.3174 2.35946 16.2549 2.54348C16.2153 2.65929 16.1334 2.75298 16.0239 2.80685C15.9144 2.86056 15.7905 2.8688 15.6744 2.82897C15.0683 2.6245 14.407 2.94967 14.2015 3.55544C14.1392 3.73992 14.2374 3.93981 14.4215 4.00252Z" fill="#FF7F8E"/>
<path d="M16.9711 8.88136C16.9099 8.83955 16.841 8.8156 16.7705 8.80644C17.4698 6.5338 17.8535 4.3074 17.9085 2.18674C17.9257 1.51978 17.5998 0.629277 16.9426 0.217138C16.6273 0.0190791 16.1105 -0.14419 15.4398 0.200963C14.3884 0.743412 13.6366 2.33887 13.0327 3.62137C12.9979 3.69522 12.9637 3.76739 12.93 3.8388C12.7965 3.2254 12.3911 2.70065 11.8146 2.42676C11.6788 1.77353 11.1606 1.26175 10.5095 1.12915C10.5025 1.09253 10.4936 1.05652 10.4828 1.02036C10.3487 0.562138 9.94431 0.217138 9.47648 0.161596C9.21296 0.130315 8.95173 0.184789 8.72864 0.315404C8.53852 0.209508 8.3252 0.153204 8.10624 0.153204C7.49421 0.153204 6.97999 0.580143 6.84586 1.15143C6.17677 1.33362 5.68605 1.94763 5.68086 2.66144C4.91746 2.85858 4.36128 3.54843 4.36128 4.36889C4.36128 4.58648 4.40217 4.80178 4.4806 5.00488C4.28255 5.24947 4.17268 5.55572 4.17268 5.87707C4.17268 6.06994 4.21235 6.25579 4.28743 6.42745C3.93587 6.04385 3.44102 5.73028 2.8853 5.75072C2.6909 5.75698 2.53816 5.91933 2.54411 6.11358C2.55007 6.30401 2.70647 6.45461 2.89583 6.45461C2.90773 6.45507 2.91856 6.454 2.92986 6.454C3.25975 6.454 3.5663 6.6722 3.78938 6.9255C3.23122 7.08648 2.55815 7.34816 2.24428 7.94036C2.05522 8.29756 2.0331 8.73564 2.15914 9.23766C2.09825 9.33943 2.06484 9.45769 2.07109 9.58357L2.67015 18.0966C2.72478 19.1641 3.6046 20 4.67317 20H14.5532C15.6218 20 16.5016 19.1641 16.5558 18.103L17.1699 9.29396C17.1699 9.29198 17.1704 9.28984 17.1704 9.2877C17.1802 9.12535 17.1052 8.97368 16.9711 8.88136ZM13.217 4.84542C13.3565 4.58541 13.5085 4.26284 13.6693 3.9212C14.1983 2.7977 14.9234 1.25931 15.7622 0.82642C16.0683 0.668644 16.3319 0.66544 16.5684 0.812992C16.9763 1.06919 17.2165 1.7157 17.2047 2.16843C17.1509 4.24926 16.7708 6.43905 16.0747 8.67766C16.0518 8.75121 16.0011 8.89967 15.9289 9.10353L15.3291 9.36995C15.3162 9.3759 15.3035 9.38231 15.2911 9.38994C15.1179 9.49385 14.9237 9.54512 14.7293 9.54726C14.5351 9.54512 14.3411 9.49385 14.1679 9.38994L13.9171 9.23933C13.6284 9.06615 13.3049 8.97963 12.9814 8.97963C12.9776 8.97963 12.9738 8.98024 12.9695 8.98024C12.6422 8.9781 12.3141 9.06371 12.0219 9.23933L11.7714 9.38994C11.6316 9.47371 11.4772 9.5146 11.3208 9.53215C11.3297 9.50163 11.3399 9.47157 11.349 9.44136C11.4455 9.11375 11.5489 8.79057 11.6573 8.46999C11.6985 8.34807 11.7415 8.22707 11.7844 8.10637C11.8748 7.85186 11.9695 7.6007 12.0674 7.35106C12.1111 7.23952 12.1536 7.12691 12.1986 7.01644C12.5058 6.26769 12.8444 5.54168 13.217 4.84542ZM8.73032 5.68023C8.77137 5.62743 8.8115 5.57616 8.84965 5.52612C8.84965 5.52551 8.84995 5.52505 8.85026 5.52474C8.87803 5.48782 8.90229 5.44936 8.92273 5.41091C9.0094 5.2481 9.0297 5.065 8.98957 4.88616L10.4587 4.56497C10.4686 4.60998 10.4791 4.65469 10.4961 4.69619C10.5618 4.85732 10.6795 4.99145 10.8431 5.08514C10.8966 5.11474 10.9526 5.14419 11.0103 5.17486C11.0577 5.19988 11.1053 5.22582 11.1531 5.25192C11.176 5.26428 11.1992 5.27648 11.2221 5.2893C11.264 5.3128 11.3045 5.33889 11.3452 5.36453C11.3802 5.38604 11.4146 5.40817 11.4484 5.43182C11.4874 5.45882 11.5248 5.48873 11.562 5.5191C11.5948 5.5458 11.6261 5.5751 11.6571 5.605C11.6905 5.63766 11.7236 5.67107 11.7543 5.7077C11.8085 5.77239 11.8605 5.83968 11.9031 5.92025C11.7538 6.24969 11.6135 6.58584 11.4777 6.92473C11.4565 6.97722 11.434 7.02834 11.4133 7.08068C11.0275 7.17849 10.6548 7.36159 10.1944 7.6892C9.61426 8.10134 9.18244 8.21089 8.47077 8.10774L8.25715 7.12966C8.11219 6.46834 8.42652 6.0678 8.73032 5.68023ZM10.4756 3.54278C10.4848 3.5411 10.4939 3.54004 10.5031 3.54004C10.5696 3.54004 10.6319 3.58764 10.6464 3.65448C10.6577 3.70514 10.6386 3.74496 10.6259 3.76419C10.6136 3.78326 10.5858 3.81668 10.5354 3.82751L8.59116 4.25308C8.5138 4.27002 8.43491 4.21859 8.41797 4.14184C8.40119 4.06479 8.45215 3.98559 8.52921 3.96865L9.56223 3.74267L10.4756 3.54278ZM9.33808 8.98665C9.31138 8.98848 9.28421 8.98909 9.25751 8.99199C9.06556 9.01137 8.8762 9.05989 8.69645 9.14076L8.62916 8.83284C8.73063 8.84123 8.83164 8.84978 8.92624 8.84978C9.5401 8.84978 10.0343 8.66698 10.6023 8.26293C10.7811 8.13552 10.9395 8.03908 11.0901 7.95928C11.0577 8.05113 11.0257 8.14253 10.9944 8.23485C10.9718 8.30092 10.9476 8.36608 10.9258 8.4326C10.8223 8.74587 10.7237 9.06157 10.6319 9.38017L10.3978 9.2401C10.1093 9.06691 9.78577 8.98024 9.46228 8.98024C9.45801 8.98024 9.45359 8.981 9.44931 8.981C9.41208 8.98024 9.375 8.98451 9.33808 8.98665ZM5.12819 5.34698L5.35875 5.15701L5.20921 4.89898C5.11552 4.73709 5.06593 4.55398 5.06593 4.36889C5.06593 3.79867 5.51255 3.33374 6.08277 3.30993L6.51002 3.29193L6.41038 2.87582C6.39359 2.80624 6.38505 2.73758 6.38505 2.67242C6.38505 2.21909 6.73921 1.83731 7.19102 1.80283L7.51633 1.77811V1.42792C7.52656 1.11161 7.78733 0.85709 8.10654 0.85709C8.29026 0.85709 8.42194 0.94086 8.49976 1.0112L8.7465 1.23398L8.98301 1.00037C9.09134 0.893406 9.24027 0.843357 9.39377 0.860905C9.58237 0.883182 9.75266 1.03028 9.80759 1.21933C9.82621 1.28266 9.83155 1.34384 9.82422 1.40625L9.78302 1.79932H10.1793C10.6851 1.79932 11.1081 2.19467 11.143 2.69928L11.1589 2.9306L11.3774 3.0072C11.9275 3.20053 12.2894 3.72101 12.2771 4.30358C12.2717 4.55245 12.1915 4.79202 12.0461 5.00213C11.8106 4.80224 11.5569 4.66751 11.3435 4.5552C11.2883 4.5259 11.2349 4.49783 11.181 4.46792C11.1658 4.45938 11.1475 4.44473 11.1412 4.40765C11.1328 4.35699 11.1517 4.29611 11.1902 4.2514C11.3435 4.07333 11.4052 3.83056 11.3556 3.60138L11.313 3.40744C11.2704 3.21167 11.1536 3.04458 10.9847 2.93609C10.816 2.82806 10.6154 2.7919 10.4201 2.83478L10.3256 2.85553C10.3246 2.85583 10.3236 2.85553 10.3226 2.85583L9.28956 3.08182L8.28156 3.30185C8.08625 3.34457 7.91901 3.461 7.81068 3.63022C7.70219 3.79882 7.66633 3.99978 7.7089 4.19509L7.72996 4.29077V4.29184C7.72996 4.29229 7.73041 4.2926 7.73041 4.29336L7.75117 4.38873C7.80213 4.6231 7.9651 4.82055 8.1865 4.91561C8.24143 4.93911 8.28721 4.98382 8.30308 5.02929C8.31223 5.05538 8.30689 5.06866 8.28644 5.10253V5.10284C8.25165 5.14968 8.21397 5.19714 8.17567 5.24612C8.13691 5.2954 8.09678 5.34713 8.05588 5.40069C8.04215 5.41854 8.02918 5.43716 8.01545 5.45547C7.98615 5.49529 7.95701 5.53573 7.92817 5.578C7.9123 5.60088 7.89719 5.62454 7.88163 5.64849C7.85493 5.68969 7.82914 5.73211 7.80381 5.7759C7.78916 5.80123 7.77467 5.82626 7.76063 5.8525C7.73408 5.90179 7.71027 5.95351 7.68662 6.00646C7.6764 6.02889 7.66557 6.05041 7.65641 6.07406C7.62543 6.15066 7.59797 6.23092 7.57615 6.31545C7.57264 6.32888 7.57127 6.34322 7.56806 6.35696C7.55112 6.42882 7.53739 6.50298 7.52854 6.5805C7.52518 6.61147 7.52442 6.64382 7.52229 6.67586C7.51939 6.71737 7.5142 6.75689 7.5142 6.80007C7.51267 6.79839 7.5113 6.79656 7.50993 6.79488C7.50504 6.78847 7.50001 6.78283 7.49543 6.77657C7.43424 6.69585 7.3729 6.62169 7.31141 6.5512C7.29203 6.52907 7.27235 6.50771 7.25266 6.4865C7.20094 6.43066 7.14921 6.37816 7.09702 6.32888C7.08024 6.31301 7.0633 6.29577 7.04606 6.2802C6.98029 6.22146 6.91407 6.16759 6.84754 6.11968C6.82893 6.10641 6.80985 6.09511 6.79124 6.08245C6.74119 6.04888 6.69129 6.01791 6.64048 5.99059C6.61591 5.97716 6.59165 5.96419 6.56663 5.95214C6.51414 5.92651 6.46134 5.90469 6.40824 5.88561C6.3907 5.87936 6.373 5.87081 6.35545 5.86517C6.29777 5.84685 6.23979 5.83205 6.18135 5.82122C6.17463 5.81985 6.16792 5.82046 6.1612 5.81954C6.1493 5.81741 6.13771 5.81283 6.12565 5.811C6.08476 5.80505 6.046 5.80749 6.00587 5.80459C5.97779 5.80291 5.95002 5.79696 5.92179 5.79696C5.9134 5.79696 5.90455 5.7991 5.89585 5.7991C5.84123 5.79971 5.78843 5.80611 5.73533 5.81268C5.70893 5.81618 5.68254 5.81832 5.65614 5.8232C5.58671 5.83587 5.51957 5.85357 5.45304 5.87463C5.44282 5.87783 5.4329 5.88027 5.42268 5.88378C5.24751 5.94329 5.08134 6.02752 4.92585 6.12914C4.89381 6.04995 4.87687 5.96481 4.87687 5.87707C4.87733 5.67107 4.96888 5.4779 5.12819 5.34698ZM2.86684 8.26933C3.01576 7.98888 3.37724 7.7748 4.00484 7.59536C4.29841 7.51158 4.57078 7.35488 4.79188 7.1437C4.89213 7.04772 4.98613 6.96639 5.07692 6.89254C5.36058 6.66198 5.60517 6.53655 5.82658 6.50802C5.83161 6.50741 5.8365 6.50664 5.84138 6.50634C5.91142 6.49856 5.97932 6.50069 6.04524 6.51229C6.06248 6.51549 6.08003 6.52144 6.09773 6.52602C6.13038 6.53411 6.16273 6.5422 6.19554 6.55532C6.21659 6.56341 6.23765 6.57577 6.25916 6.58553C6.28968 6.60033 6.32005 6.61376 6.35072 6.63238C6.37467 6.64672 6.39848 6.66549 6.42243 6.68197C6.45097 6.70196 6.4795 6.72027 6.50834 6.74361C6.53504 6.76497 6.5619 6.79107 6.5886 6.81533C6.6153 6.83959 6.64216 6.86187 6.66886 6.88888C6.69846 6.91878 6.72837 6.95357 6.75828 6.98714C6.78254 7.01415 6.8068 7.03917 6.83152 7.06847C6.86494 7.1086 6.89866 7.15422 6.93238 7.19863C6.9539 7.22686 6.97511 7.25219 6.99647 7.28209C7.03492 7.33565 7.07353 7.39501 7.11228 7.45421C7.12922 7.48015 7.14646 7.5035 7.16325 7.5302C7.21925 7.61855 7.27555 7.71254 7.33216 7.81249C7.59126 8.26964 7.67716 8.94499 7.56455 9.53322C7.54578 9.53139 7.52747 9.52864 7.50886 9.52574C7.37473 9.50285 7.24564 9.45998 7.128 9.38948L6.87699 9.23888C6.58845 9.06569 6.26496 8.97917 5.94148 8.97917C5.93766 8.97917 5.93385 8.97978 5.92958 8.97978C5.60228 8.97765 5.27421 9.06325 4.98201 9.23888L4.85994 9.31212C4.64692 9.43983 4.40843 9.50423 4.16978 9.50636C3.93068 9.50423 3.69249 9.44014 3.47963 9.31212L3.00615 9.02769C3.00615 9.02769 3.00584 9.02769 3.00584 9.02739C2.94344 8.99046 2.8763 8.96498 2.80733 8.95247C2.75209 8.674 2.77178 8.44878 2.86684 8.26933ZM15.8546 18.0603C15.8191 18.7529 15.2479 19.2956 14.5546 19.2956H4.67424C3.98042 19.2956 3.40959 18.7529 3.37373 18.0536L2.78795 9.73234L3.09419 9.91621C3.42607 10.1153 3.79884 10.2133 4.17055 10.2112C4.54255 10.2133 4.91487 10.1155 5.24675 9.91621L5.36897 9.84297C5.542 9.73875 5.73609 9.68733 5.93034 9.68519C6.12458 9.68733 6.31852 9.73875 6.49201 9.84297L6.74302 9.99357C7.06055 10.184 7.4202 10.2656 7.77573 10.2463C7.80732 10.2449 7.83906 10.2449 7.8711 10.2421C7.87492 10.2417 7.87858 10.2395 7.8827 10.2392C8.12302 10.2122 8.35892 10.1365 8.57636 10.0126C8.59681 10.0052 8.61863 10.0049 8.6377 9.99357L8.88871 9.84297C9.06174 9.73875 9.25568 9.68733 9.45008 9.68519C9.64432 9.68733 9.83826 9.73875 10.0118 9.84297L10.2628 9.99357C10.5292 10.153 10.8257 10.2357 11.1237 10.2481C11.1296 10.2484 11.136 10.2492 11.142 10.2492C11.2447 10.2524 11.3475 10.2492 11.4496 10.2347C11.508 10.2272 11.5646 10.2125 11.622 10.1994C11.6498 10.1929 11.6777 10.1867 11.7052 10.1787C11.8614 10.1355 12.0145 10.0787 12.157 9.99327L12.408 9.84251C12.5812 9.73845 12.7751 9.68703 12.9694 9.68489C13.1636 9.68703 13.3577 9.73845 13.5312 9.84251L13.7822 9.99327C14.0729 10.1674 14.3991 10.253 14.725 10.2516C14.7304 10.2516 14.7359 10.2527 14.7412 10.2527C15.0574 10.2527 15.3737 10.1703 15.6573 10.0049L16.348 9.69786C16.3628 9.6913 16.3733 9.67848 16.387 9.67009L16.4409 9.64613L15.8546 18.0603Z" fill="#FF7F8E"/>
<path d="M4.18245 15.1358H6.64628C6.84052 15.1358 6.9983 14.9785 6.9983 14.7838C6.9983 14.5892 6.84052 14.4317 6.64628 14.4317H4.18245C3.9882 14.4317 3.83058 14.5892 3.83058 14.7838C3.83058 14.9785 3.9882 15.1358 4.18245 15.1358Z" fill="#FF7F8E"/>
<path d="M4.18245 16.5437H7.35017C7.54456 16.5437 7.70219 16.3864 7.70219 16.1917C7.70219 15.997 7.54456 15.8397 7.35017 15.8397H4.18245C3.9882 15.8397 3.83058 15.997 3.83058 16.1917C3.83058 16.3864 3.9882 16.5437 4.18245 16.5437Z" fill="#FF7F8E"/>
<path d="M8.05406 17.2476H4.18245C3.9882 17.2476 3.83058 17.4049 3.83058 17.5996C3.83058 17.7941 3.9882 17.9515 4.18245 17.9515H8.05406C8.2483 17.9515 8.40607 17.7941 8.40607 17.5996C8.40607 17.4049 8.2483 17.2476 8.05406 17.2476Z" fill="#FF7F8E"/>
<path d="M10.1659 17.2476H9.46197C9.26758 17.2476 9.10995 17.4049 9.10995 17.5996C9.10995 17.7941 9.26758 17.9515 9.46197 17.9515H10.1659C10.3601 17.9515 10.5179 17.7941 10.5179 17.5996C10.5179 17.4049 10.3602 17.2476 10.1659 17.2476Z" fill="#FF7F8E"/>
</svg>
