<svg width="20" height="20" viewBox="0 0 20 20" fill="none" xmlns="http://www.w3.org/2000/svg">
<g clip-path="url(#clip0)">
<path d="M12.4599 3.36023C12.3358 3.30785 12.1924 3.33547 12.0967 3.43023C12.0672 3.46261 12.0434 3.49984 12.0265 3.54027C11.9827 3.64281 11.9936 3.7605 12.0554 3.85324C12.1173 3.94597 12.2218 4.00124 12.3333 4.00019C12.422 4.00101 12.5072 3.96617 12.57 3.90351C12.5992 3.87031 12.6238 3.83328 12.6432 3.79347C12.6593 3.75324 12.6673 3.71019 12.6666 3.66683C12.6678 3.62312 12.6586 3.57976 12.64 3.54019C12.6096 3.45652 12.5437 3.39058 12.4599 3.36023Z" fill="#FF7F8E"/>
<path d="M14.7301 0.000233767H12C11.8159 0.000233767 11.6667 0.149451 11.6667 0.33355C11.6667 0.51765 11.8159 0.666867 12 0.666867H14.7301C16.8745 0.641242 18.6352 2.35583 18.6666 4.50014C18.6352 6.64449 16.8745 8.35904 14.7301 8.33342C13.523 8.3392 12.3791 7.7944 11.6228 6.85363L17.4353 4.9842C17.577 4.93865 17.6714 4.80467 17.6664 4.65592C17.6615 4.50717 17.5585 4.37967 17.4142 4.34358L15.3842 3.83613L16.88 2.58973C16.9878 2.49993 17.0279 2.35212 16.9801 2.22009C16.9324 2.0881 16.807 2.00017 16.6666 2.00021H8.33334C7.84674 2.00193 7.39999 2.26947 7.16874 2.69762C3.39586 3.50254 0.666786 6.73137 0.666786 10.4178C0.666786 10.5648 0.671786 10.7107 0.680145 10.8557C0.664911 10.9212 0.670419 10.99 0.695926 11.0523C1.03393 15.0768 4.55299 18.2612 8.85857 18.3299L10.174 19.6478C10.3809 19.8666 10.6669 19.9935 10.9681 20C10.9777 20 10.9874 19.9997 10.9971 19.9993C11.3208 19.9804 11.6217 19.8265 11.8267 19.5752L12.7898 18.3754C12.7956 18.3682 12.7969 18.3594 12.802 18.352C12.8463 18.3226 12.8886 18.2904 12.9287 18.2556C13.1866 18.0183 13.3333 17.6838 13.3333 17.3334C13.3333 16.9829 13.1865 16.6485 12.9287 16.4112C12.889 16.3776 12.8473 16.3466 12.8037 16.3183C12.798 16.3097 12.7964 16.2997 12.7898 16.2914L11.8161 15.0792C11.6122 14.834 11.3154 14.6849 10.9971 14.6674C10.686 14.6657 10.388 14.7929 10.1742 15.0189L8.86954 16.3258C7.48596 16.2732 6.38531 15.3967 5.7993 14H6.00282C6.2193 14.0049 6.42254 14.1054 6.55781 14.2744L7.08027 14.8838C7.2003 15.0231 7.41042 15.0389 7.54999 14.9192C7.68956 14.7995 7.70584 14.5894 7.58647 14.4496L7.06402 13.8402C6.80117 13.5245 6.41356 13.3394 6.00286 13.3334H5.57021C5.51021 13.1139 5.46224 12.8914 5.42646 12.6667H6.1145C6.37953 12.6675 6.63359 12.7727 6.82152 12.9597L7.43108 13.569C7.56159 13.6972 7.77096 13.6962 7.90029 13.5669C8.02963 13.4376 8.03057 13.2282 7.9024 13.0977L7.29288 12.4883C6.98105 12.1747 6.55676 11.9989 6.11453 12.0001H5.34993C5.33962 11.8388 5.33349 11.6749 5.33349 11.5076C5.33349 11.448 5.33661 11.3918 5.33767 11.3334H6.22606C6.53969 11.3305 6.84402 11.4399 7.08413 11.6417L7.78073 12.2511C7.91936 12.3719 8.12967 12.3576 8.25068 12.2192C8.37173 12.0807 8.35775 11.8704 8.21951 11.7491L7.52307 11.1398C7.16226 10.8303 6.7014 10.6622 6.22606 10.6668H5.37411C5.49212 9.48165 5.87395 8.57892 6.51215 7.96065C6.5143 7.96178 6.51551 7.96389 6.51773 7.96498L8.55955 8.98579C8.85306 9.13267 9.05591 9.41415 9.10235 9.73903L9.33688 11.3806C9.36028 11.5446 9.50063 11.6665 9.66629 11.6667C9.68223 11.6668 9.69816 11.6657 9.71398 11.6635C9.89621 11.6373 10.0228 11.4685 9.99668 11.2862L9.76215 9.64465C9.68492 9.10318 9.34688 8.63408 8.85771 8.38947L7.10144 7.5114C7.40733 7.33351 7.73725 7.20058 8.08104 7.11671C8.09397 7.1116 8.10654 7.10562 8.11865 7.09882C8.40685 7.46034 8.86255 7.64557 9.32126 7.58776C9.34192 7.58511 9.36227 7.58065 9.38211 7.57444L10.9515 7.06972C11.8236 8.28779 13.2321 9.00739 14.7302 9.00017C17.2427 9.02556 19.3018 7.01265 19.3334 4.50022C19.3016 1.98775 17.2426 -0.0251566 14.7301 0.000233767ZM11.3174 19.1455C11.234 19.2513 11.1114 19.3189 10.9775 19.333C10.8497 19.3309 10.7289 19.2742 10.6458 19.1771L9.87754 18.4075L11.782 18.5662L11.3174 19.1455ZM10.646 15.4896C10.7288 15.3976 10.8442 15.3415 10.9678 15.3334L10.9775 15.3337C11.1061 15.3462 11.2245 15.4092 11.3068 15.5088L11.7818 16.1006L9.87765 16.2593L10.646 15.4896ZM9.33333 16.9734L12.0312 16.7484C12.1948 16.7345 12.3566 16.79 12.4772 16.9014C12.6617 17.0712 12.7181 17.3395 12.6173 17.5691C12.5166 17.7988 12.2811 17.9391 12.0312 17.9183L9.33333 17.6934V16.9734ZM4.66674 11.5076C4.66674 14.5981 6.2959 16.7923 8.66669 16.9815V17.6587C5.06599 17.5122 2.10278 15.0067 1.46338 11.739C1.82634 11.9539 2.23993 12.0684 2.66168 12.0708C2.67813 12.0708 2.69473 12.0708 2.71133 12.0704C2.89403 12.0666 3.03961 11.9163 3.0377 11.7336C3.03578 11.5509 2.88707 11.4037 2.70434 11.4037C2.69 11.4031 2.67649 11.4041 2.66301 11.4041C2.16345 11.3868 1.69045 11.1747 1.34529 10.8131C1.33779 10.6822 1.33346 10.5505 1.33346 10.4178C1.33537 9.85281 1.40779 9.29028 1.54904 8.74326C1.97263 9.16767 2.53528 9.42477 3.1334 9.46723C3.13973 9.46758 3.14594 9.4679 3.15226 9.4679C3.33258 9.46762 3.47996 9.32399 3.48492 9.14376C3.48984 8.96353 3.35054 8.81205 3.17051 8.80193C2.62001 8.74544 2.11907 8.45881 1.79146 8.01284C1.78787 8.00748 1.78209 8.00487 1.77822 7.99983C2.03681 7.32339 2.39618 6.68992 2.84418 6.12094C3.13867 6.67926 3.63277 7.10605 4.22796 7.31624C4.341 7.35433 4.46576 7.32909 4.5551 7.25007C4.64443 7.17105 4.68475 7.05031 4.66076 6.93343C4.63678 6.81656 4.55213 6.72148 4.43889 6.68406C3.9253 6.48703 3.51874 6.08231 3.31941 5.56962C4.32045 4.52315 5.59606 3.7798 7.00007 3.42476V3.61773C6.99968 4.63245 7.25757 5.63056 7.74948 6.51809C6.30387 6.93531 4.66674 8.14752 4.66674 11.5076ZM11.2408 6.27622C11.138 6.08469 11.0517 5.88477 10.9831 5.67857C10.9252 5.5038 10.7366 5.40908 10.5619 5.46697C10.3871 5.52486 10.2924 5.71345 10.3503 5.88817C10.4187 6.09208 10.5017 6.29075 10.5986 6.48274L9.21063 6.92922C8.96841 6.94992 8.73431 6.83637 8.6006 6.63332L8.56236 6.57637C7.97748 5.7006 7.66573 4.67088 7.6667 3.61773V3.33355C7.66713 2.96555 7.96533 2.66731 8.33338 2.66688H15.7459L14.4533 3.74402C14.3569 3.82437 14.3138 3.95206 14.3418 4.07437C14.3698 4.19671 14.464 4.29296 14.5858 4.32343L16.1196 4.7069L11.2408 6.27622Z" fill="#FF7F8E"/>
</g>
<defs>
<clipPath id="clip0">
</clipPath>
</defs>
</svg>
