<svg width="20" height="20" viewBox="0 0 20 20" fill="none" xmlns="http://www.w3.org/2000/svg">
<g clip-path="url(#clip0)">
<path d="M3.52 15.574C3.52473 15.587 3.53029 15.5997 3.53667 15.612C4.05997 16.8966 4.94955 17.9989 6.09467 18.7817C7.24124 19.5668 8.59641 19.9911 9.98601 20H10C11.3893 19.9911 12.7442 19.5671 13.8907 18.7823C15.0279 18.0047 15.9133 16.912 16.4383 15.6383C16.4584 15.6077 16.4731 15.5739 16.482 15.5383C16.8669 14.5702 17.0324 13.5288 16.9667 12.489C16.9672 12.4736 16.9665 12.4583 16.9647 12.443C16.9387 12.0665 16.8819 11.6928 16.7947 11.3257C16.4403 9.84735 15.5947 8.76835 14.7567 7.79001C14.5973 7.60368 14.436 7.41835 14.2747 7.23301C13.4944 6.3891 12.7916 5.47677 12.1747 4.50701C11.4262 3.2095 10.8565 1.81679 10.481 0.366678C10.4183 0.148805 10.2188 -0.0011042 9.99208 -0.000639793C9.76538 -0.000175386 9.56645 0.15055 9.50467 0.368679C9.12954 1.8179 8.5604 3.20981 7.81267 4.50668C7.19574 5.47642 6.49291 6.38875 5.71267 7.23268C5.55133 7.41823 5.39056 7.60401 5.23033 7.79001C4.39333 8.76835 3.547 9.84735 3.19267 11.3257C3.1042 11.698 3.04711 12.0771 3.022 12.459V12.4687C2.95209 13.5281 3.12232 14.5896 3.52 15.574ZM3.676 13.092C4.47839 13.8591 5.74228 13.8591 6.54467 13.092C6.8108 12.8205 7.17499 12.6675 7.55517 12.6675C7.93535 12.6675 8.29954 12.8205 8.56567 13.092C9.36704 13.8597 10.631 13.8597 11.4323 13.092C11.6985 12.8206 12.0627 12.6677 12.4428 12.6677C12.823 12.6677 13.1872 12.8206 13.4533 13.092C14.2515 13.8568 15.5094 13.8604 16.312 13.1003C16.2934 13.8394 16.1467 14.5697 15.8787 15.2587C15.6168 15.5232 15.2589 15.6704 14.8867 15.6667C14.5055 15.6685 14.14 15.5151 13.8743 15.2417C13.073 14.474 11.809 14.474 11.0077 15.2417C10.7415 15.5131 10.3773 15.666 9.99717 15.666C9.61702 15.666 9.25285 15.5131 8.98667 15.2417C8.18544 14.4737 6.92124 14.4737 6.12 15.2417C5.85446 15.5128 5.49117 15.6659 5.11167 15.6667C4.73218 15.6674 4.36828 15.5157 4.10167 15.2457C3.83563 14.5577 3.6906 13.8288 3.673 13.0913L3.676 13.092ZM13.515 18.2333C12.4792 18.9423 11.2551 19.3253 10 19.3333H9.99301C8.73488 19.327 7.50764 18.943 6.47034 18.231C5.72154 17.7192 5.0905 17.0537 4.61933 16.2787C4.7802 16.316 4.94487 16.3343 5.11 16.3333C5.64442 16.3346 6.1584 16.1281 6.54334 15.7573C6.80947 15.4858 7.17366 15.3329 7.55384 15.3329C7.93402 15.3329 8.29821 15.4858 8.56434 15.7573C9.36571 16.525 10.6296 16.525 11.431 15.7573C11.6972 15.4859 12.0614 15.333 12.4415 15.333C12.8217 15.333 13.1858 15.4859 13.452 15.7573C13.8373 16.1284 14.3518 16.3349 14.8867 16.3333C15.0473 16.3342 15.2075 16.3172 15.3643 16.2827C14.8933 17.0568 14.2629 17.7217 13.515 18.2333ZM5.736 8.22335C5.89434 8.03868 6.05467 7.85468 6.215 7.67068C7.0226 6.79667 7.74945 5.85137 8.38667 4.84634C9.07371 3.66311 9.61318 2.40014 9.99301 1.08568C10.3731 2.40026 10.9128 3.66333 11.6 4.84668C12.2369 5.85176 12.9636 6.79697 13.7713 7.67068C13.9316 7.85468 14.0911 8.0389 14.25 8.22335C15.034 9.14001 15.8263 10.1463 16.146 11.481C16.2083 11.7486 16.2528 12.0199 16.2793 12.2933C16.1453 12.3794 16.0169 12.4741 15.895 12.5767C15.6286 12.848 15.2644 13.0008 14.8842 13.0008C14.504 13.0008 14.1397 12.848 13.8733 12.5767C13.072 11.809 11.808 11.809 11.0067 12.5767C10.7405 12.8481 10.3763 13.001 9.99617 13.001C9.61602 13.001 9.25185 12.8481 8.98567 12.5767C8.18444 11.8087 6.92024 11.8087 6.119 12.5767C5.85219 12.8483 5.48742 13.0013 5.10667 13.0013C4.72592 13.0013 4.36114 12.8483 4.09433 12.5767C3.97054 12.472 3.83992 12.3757 3.70333 12.2883C3.73005 12.0169 3.77459 11.7476 3.83667 11.482C4.16 10.1463 4.952 9.14001 5.736 8.22335Z" fill="#FF7F8E"/>
<path d="M4.73566 12.0374C4.7612 12.0436 4.78738 12.0467 4.81366 12.0467C4.96756 12.0465 5.10132 11.941 5.13733 11.7914C5.36666 10.8374 5.902 10.0787 6.75033 9.09135C6.906 8.90868 7.062 8.72968 7.22233 8.54601L7.26067 8.50135C7.652 8.04934 8.05667 7.58168 8.44934 7.09501C8.52674 7.00261 8.54824 6.87562 8.50555 6.7629C8.46286 6.65017 8.36264 6.56928 8.24345 6.55133C8.12425 6.53338 8.00466 6.58118 7.93067 6.67634C7.545 7.15401 7.14433 7.61734 6.75667 8.06534L6.719 8.10868C6.558 8.29301 6.40067 8.47535 6.24367 8.65768C5.32966 9.72435 4.74966 10.5524 4.48933 11.637C4.44737 11.8155 4.55743 11.9944 4.73566 12.0374Z" fill="#FF7F8E"/>
<path d="M8.85833 5.972C9.01315 6.07159 9.2194 6.02682 9.31899 5.872C9.39255 5.75733 9.4641 5.641 9.53366 5.523C9.59774 5.42029 9.6011 5.29091 9.54244 5.18502C9.48378 5.07912 9.37231 5.01336 9.25125 5.01321C9.1302 5.01307 9.01858 5.07858 8.95966 5.18433C8.89455 5.29544 8.82733 5.40455 8.758 5.51167C8.6587 5.66651 8.7036 5.87252 8.85833 5.972Z" fill="#FF7F8E"/>
</g>
<defs>
<clipPath id="clip0">
</clipPath>
</defs>
</svg>
